<?xml version="1.0" encoding="UTF-8" standalone="no"?>
<svg viewBox="0 0 52 60" version="1.1" xmlns="http://www.w3.org/2000/svg" xmlns:xlink="http://www.w3.org/1999/xlink" xmlns:sketch="http://www.bohemiancoding.com/sketch/ns">
    <!-- Generator: Sketch 3.5.2 (25235) - http://www.bohemiancoding.com/sketch -->
    <title>icon-money</title>
    <desc>Created with Sketch.</desc>
    <defs></defs>
    <g id="Page-1" stroke="none" stroke-width="1" fill="none" fill-rule="evenodd" sketch:type="MSPage">
        <g id="icon-money" sketch:type="MSLayerGroup">
            <g id="Page-1" sketch:type="MSShapeGroup">
                <g id="Group">
                    <path d="M34.2,10 C34.2,5.8 30.8,2.4 26.6,2.4 C22.4,2.4 19,5.8 19,10 C19,14.2 22.4,17.6 26.6,17.6 C30.8,17.6 34.2,14.2 34.2,10 L34.2,10 L34.2,10 Z M24.6,13.7 C24.1,13.6 23.7,13.3 23.4,13 L24.6,11.7 C24.8,11.9 24.9,12.1 25.2,12.2 C25.5,12.3 26,12.4 26,12.4 L26,10.5 L25.3,10.3 C24.7,10.1 24.4,9.9 24.1,9.5 C23.8,9.2 23.7,8.7 23.7,8.2 C23.7,7.8 23.8,7.5 23.9,7.2 C24,6.9 24.2,6.7 24.5,6.5 C24.7,6.3 24.9,6.1 25.2,6 C25.5,5.9 26,5.8 26,5.8 L26,5 L27,5 L27,5.7 C27,5.7 27.8,5.8 28.2,5.9 C28.6,6 29,6.2 29.3,6.5 L28.2,7.8 C28,7.6 27.8,7.5 27.6,7.5 C27.4,7.4 26.9,7.4 26.9,7.4 L26.9,9 L28,9.3 C28.5,9.4 28.9,9.7 29.2,10 C29.5,10.3 29.6,10.8 29.6,11.3 C29.6,11.7 29.5,12 29.4,12.3 C29.3,12.6 29.1,12.9 28.8,13.1 C28.6,13.3 28.3,13.5 27.9,13.6 C27.6,13.7 26.9,13.8 26.9,13.8 L26.9,15 L25.9,15 L25.9,13.9 C26,13.9 25.1,13.8 24.6,13.7 L24.6,13.7 L24.6,13.7 Z" id="Shape"></path>
                    <path d="M26.2,7.3 C26,7.3 25.8,7.4 25.6,7.5 C25.4,7.6 25.4,7.8 25.4,8 C25.4,8.2 25.4,8.3 25.5,8.4 C25.6,8.5 25.6,8.6 25.7,8.6 C25.8,8.7 25.9,8.7 26,8.7 C26.1,8.7 26.2,8.7 26.2,8.8 L26.2,7.3 L26.2,7.3 L26.2,7.3 Z" id="Shape"></path>
                    <path d="M27.6,12.1 C27.7,12 27.8,12 27.8,11.9 C27.9,11.8 27.9,11.7 27.9,11.6 C27.9,11.5 27.9,11.4 27.8,11.3 C27.8,11.2 27.7,11.1 27.6,11.1 C27.5,11 27.5,11 27.4,11 C27.3,11 27.2,10.9 27.1,10.9 L27,10.6 L27,12.3 C27.1,12.3 27.2,12.2 27.3,12.2 C27.4,12.2 27.5,12.1 27.6,12.1 L27.6,12.1 L27.6,12.1 Z" id="Shape"></path>
                    <path d="M44.9,42.8 L49,42.7 C49.5,42.7 49.9,42.3 49.9,42 L49.9,36 C49.9,35.7 49.3,35.1 48.8,35.1 L45.4,35.1 L45.2,34.3 C45.2,34.3 44.2,30.6 40.7,27.3 L38.5,25.6 L38.5,25.1 C38.4,23.5 39.2,21 39.9,19.1 C38.3,19.8 36.1,21 34.9,23 L34.5,23.6 L33.6,23.3 C31.5,22.7 29.1,22.4 26.6,22.4 C17.2,22.4 9.3,27.7 7.7,35 C7.5,35.8 7.4,36.7 7.4,37.6 C7.4,42 9.8,46.2 14.1,49.1 L14.7,49.5 L12.5,55.4 C12.4,55.8 12.6,56.2 12.9,56.3 L16.1,57.5 C16.3,57.6 16.5,57.6 16.7,57.5 C16.9,57.4 17,57.3 17.1,57.1 L19.1,51.6 L20,51.9 C24,53.1 28.5,53.1 32.5,52.1 L33.4,51.9 L35.3,57.2 C35.4,57.4 35.5,57.5 35.7,57.6 C35.9,57.7 36.1,57.7 36.3,57.6 L39.5,56.4 C39.7,56.3 39.8,56.2 39.9,56 C40,55.8 40,55.6 39.9,55.4 L38.1,50.5 L37.9,49.8 L38.5,49.4 C41.1,47.7 43.1,45.7 44.3,43.3 L44.9,42.8 L44.9,42.8 L44.9,42.8 Z M31.7,29.1 C31.2,28 29.3,27.4 26.6,27.4 C24.6,27.4 22.2,27.7 21.5,29.2 L19.7,28.3 C20.6,26.4 22.9,25.4 26.6,25.4 C31.2,25.4 32.9,27 33.6,28.3 L31.7,29.1 L31.7,29.1 L31.7,29.1 Z M38.9,35.8 C37.8,35.8 36.8,34.9 36.8,33.7 C36.8,32.5 37.7,31.6 38.9,31.6 C40.1,31.6 41,32.5 41,33.7 C41,34.9 40.1,35.8 38.9,35.8 L38.9,35.8 L38.9,35.8 Z" id="Shape"></path>
                    <path d="M27,15 L27,13.9 C27,13.9 27.7,13.8 28,13.7 C28.3,13.6 28.6,13.4 28.9,13.2 C29.1,13 29.3,12.7 29.5,12.4 C29.6,12.1 29.7,11.8 29.7,11.4 C29.7,10.9 29.6,10.4 29.3,10.1 C29,9.8 28.6,9.5 28.1,9.4 L27,9 L27,7.2 C27,7.2 27.5,7.3 27.7,7.3 L28.3,7.6 L29.4,6.3 C29.1,6 28.7,5.9 28.3,5.7 C27.9,5.6 27.1,5.5 27.1,5.5 L27.1,5 L26.1,5 L26.1,5.7 C26.1,5.7 25.6,5.8 25.3,5.9 C25,6 24.8,6.2 24.5,6.4 C24.3,6.6 24.1,6.8 24,7.1 C23.9,7.4 23.8,7.7 23.8,8.1 C23.8,8.7 24,9.1 24.3,9.4 C24.6,9.7 24.9,10 25.5,10.2 L26.2,10.4 L26.2,12.3 C26.2,12.3 25.7,12.2 25.4,12.1 C25.1,12 24.9,11.8 24.7,11.6 L23.4,13 C23.8,13.3 24.1,13.6 24.6,13.7 C25.1,13.8 26,13.9 26,13.9 L26,15 L27,15 L27,15 L27,15 Z M27,10.6 L27.2,10.7 C27.3,10.7 27.4,10.8 27.5,10.8 C27.6,10.8 27.7,10.9 27.7,10.9 C27.8,11 27.8,11 27.9,11.1 C27.9,11.2 28,11.3 28,11.4 C28,11.5 28,11.6 27.9,11.7 C27.8,11.8 27.8,11.9 27.7,11.9 C27.6,12 27.5,12 27.4,12.1 C27.3,12.1 27.2,12.2 27.1,12.2 L27.1,10.6 L27,10.6 L27,10.6 Z M26,8.8 C25.9,8.8 25.8,8.7 25.7,8.7 C25.6,8.6 25.5,8.6 25.5,8.5 C25.4,8.4 25.4,8.3 25.4,8.1 C25.4,7.9 25.5,7.7 25.6,7.6 C25.8,7.5 26,7.4 26.2,7.4 L26.2,9 C26.2,8.8 26.1,8.8 26,8.8 L26,8.8 L26,8.8 Z" id="Shape" fill="#373737"></path>
                    <path d="M36.2,10 C36.2,4.7 31.9,0.4 26.6,0.4 C21.3,0.4 17,4.7 17,10 C17,15.3 21.3,19.6 26.6,19.6 C31.9,19.6 36.2,15.3 36.2,10 L36.2,10 L36.2,10 Z M18.9,10 C18.9,5.8 22.3,2.4 26.5,2.4 C30.7,2.4 34.1,5.8 34.1,10 C34.1,14.2 30.7,17.6 26.5,17.6 C22.3,17.6 18.9,14.2 18.9,10 L18.9,10 L18.9,10 Z" id="Shape" fill="#373737"></path>
                    <circle id="Oval" fill="#373737" cx="38.9" cy="33.7" r="2.1"></circle>
                    <path d="M46.2,44.8 L49.1,44.7 C50.6,44.7 52,43.4 52,42 L52,36 C52,34.5 50.5,33.1 48.9,33.1 L47,33.1 C46.5,31.7 45.2,28.7 42.1,25.8 L40.6,24.6 C40.7,22.7 42.1,19.2 42.7,17.9 L43.5,16 L41.5,16.5 C41.3,16.6 36.4,17.8 33.7,21.4 C31.5,20.8 29.2,20.5 26.6,20.5 C16.7,20.5 8.2,26 6,33.7 C3.8,33.2 2.1,31.2 2.1,28.9 C2.1,26.2 4.8,23.9 6.8,23.9 L6.8,21.9 C3.8,21.9 0.1,25 0.1,28.9 C0.1,32.2 2.5,34.9 5.6,35.6 C5.5,36.3 5.4,36.9 5.4,37.6 C5.4,42.5 7.9,47 12.3,50.3 L10.7,54.7 C10.2,56.1 10.9,57.7 12.3,58.2 L15.5,59.4 C15.8,59.5 16.1,59.6 16.4,59.6 C16.8,59.6 17.2,59.5 17.5,59.3 C18.2,59 18.7,58.4 18.9,57.8 L20.3,54.1 C24.1,55 28.3,55.1 32.1,54.2 L33.4,57.8 C33.7,58.5 34.2,59 34.8,59.3 C35.5,59.6 36.2,59.6 36.9,59.4 L40.1,58.2 C40.8,57.9 41.3,57.4 41.6,56.8 C41.9,56.1 41.9,55.4 41.7,54.7 L40.2,50.6 C43.1,49.1 44.9,47.1 46.2,44.8 L46.2,44.8 L46.2,44.8 Z M38.9,49.5 L38.3,49.9 L38.5,50.6 L40.3,55.5 C40.4,55.7 40.4,55.9 40.3,56.1 C40.2,56.3 40.1,56.4 39.9,56.5 L36.7,57.7 C36.5,57.8 36.3,57.8 36.1,57.7 C35.9,57.6 35.8,57.5 35.7,57.3 L33.8,52 L32.9,52.2 C28.9,53.2 24.4,53.2 20.4,52 L19.5,51.7 L17.5,57.2 C17.4,57.4 17.3,57.5 17.1,57.6 C16.9,57.7 16.7,57.7 16.5,57.6 L13.3,56.4 C12.9,56.3 12.7,55.8 12.9,55.5 L15.1,49.6 L14.5,49.2 C10.3,46.3 7.8,42.1 7.8,37.7 C7.8,36.8 7.9,35.9 8.1,35.1 C9.7,27.8 17.6,22.5 27,22.5 C29.6,22.5 31.9,22.8 34,23.4 L34.9,23.7 L35.3,23.1 C36.5,21.1 38.7,19.9 40.3,19.2 C39.6,21 38.8,23.6 38.9,25.2 L38.9,25.7 L41.1,27.4 C44.6,30.7 45.6,34.4 45.6,34.4 L45.8,35.2 L49.2,35.2 C49.7,35.2 50.3,35.8 50.3,36.1 L50.3,42.1 C50.3,42.5 49.8,42.8 49.4,42.8 L45.3,42.9 L45,43.4 C43.5,45.7 41.5,47.8 38.9,49.5 L38.9,49.5 L38.9,49.5 Z" id="Shape" fill="#373737"></path>
                    <path d="M26.6,25.3 C22.9,25.3 20.6,26.2 19.7,28.2 L21.5,29.1 C22.2,27.7 24.7,27.3 26.6,27.3 C29.4,27.3 31.2,27.9 31.7,29 L33.5,28.2 C32.9,26.9 31.2,25.3 26.6,25.3 L26.6,25.3 L26.6,25.3 Z" id="Shape" fill="#373737"></path>
                </g>
            </g>
        </g>
    </g>
</svg>