<?xml version="1.0" encoding="UTF-8" standalone="no"?>
<svg viewBox="0 0 93 80" version="1.1" xmlns="http://www.w3.org/2000/svg" xmlns:xlink="http://www.w3.org/1999/xlink" xmlns:sketch="http://www.bohemiancoding.com/sketch/ns">
    <!-- Generator: Sketch 3.5.2 (25235) - http://www.bohemiancoding.com/sketch -->
    <title>icon-problem</title>
    <desc>Created with Sketch.</desc>
    <defs></defs>
    <g id="Page-1" stroke="none" stroke-width="1" fill="none" fill-rule="evenodd" sketch:type="MSPage">
        <g id="icon-problem" sketch:type="MSLayerGroup" fill="#373737">
            <path d="M41.866,57.892 L23.249,37.669 C22.988,37.388 22.593,37.291 22.24,37.422 C21.881,37.548 21.636,37.876 21.615,38.254 L20.509,57.36 C20.485,57.808 20.776,58.201 21.189,58.319 C21.255,58.339 21.326,58.351 21.396,58.352 L41.119,59.472 C41.501,59.494 41.859,59.283 42.024,58.936 C42.188,58.587 42.125,58.176 41.866,57.892 L41.866,57.892 Z M33.597,57.402 C33.453,57.903 32.931,58.19 32.431,58.049 C31.932,57.905 31.642,57.385 31.787,56.884 L32.333,54.984 L28.062,53.762 L27.516,55.663 C27.371,56.163 26.851,56.453 26.353,56.309 C25.853,56.167 25.564,55.646 25.708,55.147 L26.251,53.244 L23.207,52.374 C22.707,52.231 22.418,51.71 22.562,51.21 C22.704,50.71 23.225,50.421 23.725,50.564 L26.771,51.434 L27.969,47.254 C28.113,46.755 28.635,46.466 29.133,46.608 C29.632,46.752 29.922,47.273 29.779,47.774 L28.579,51.953 L32.851,53.175 L33.05,52.483 C33.193,51.985 33.713,51.693 34.214,51.837 C34.714,51.979 35.002,52.5 34.86,53.001 L33.597,57.402 L33.597,57.402 Z" id="Shape" sketch:type="MSShapeGroup"></path>
            <path d="M52.923,29.081 L48.649,27.859 L47.385,32.271 L51.656,33.492 L52.923,29.081 Z" id="Shape" sketch:type="MSShapeGroup"></path>
            <rect id="Rectangle-path" sketch:type="MSShapeGroup" transform="translate(51.938510, 24.450677) rotate(15.968220) translate(-51.938510, -24.450677) " x="49.7165438" y="22.1542118" width="4.44393327" height="4.59293104"></rect>
            <path d="M51.138,35.304 L46.866,34.083 L45.599,38.494 L49.872,39.715 L51.138,35.304 Z" id="Shape" sketch:type="MSShapeGroup"></path>
            <rect id="Rectangle-path" sketch:type="MSShapeGroup" transform="translate(47.640938, 16.489857) rotate(15.968220) translate(-47.640938, -16.489857) " x="45.4194714" y="14.1953915" width="4.44293329" height="4.5889311"></rect>
            <rect id="Rectangle-path" sketch:type="MSShapeGroup" transform="translate(45.854968, 22.712240) rotate(15.968220) translate(-45.854968, -22.712240) " x="43.6355012" y="20.4162744" width="4.43893335" height="4.59193105"></rect>
            <path d="M56.493,16.632 L52.221,15.411 L50.954,19.822 L55.229,21.045 L56.493,16.632 Z" id="Shape" sketch:type="MSShapeGroup"></path>
            <path d="M62.575,18.371 L58.303,17.149 L57.036,21.562 L61.308,22.784 L62.575,18.371 Z" id="Shape" sketch:type="MSShapeGroup"></path>
            <rect id="Rectangle-path" sketch:type="MSShapeGroup" transform="translate(58.021043, 26.189743) rotate(15.950118) translate(-58.021043, -26.189743) " x="55.7990462" y="23.8937456" width="4.44399398" height="4.59199378"></rect>
            <rect id="Rectangle-path" sketch:type="MSShapeGroup" transform="translate(56.237347, 32.413014) rotate(15.950118) translate(-56.237347, -32.413014) " x="54.0153498" y="30.1190169" width="4.44399398" height="4.58799378"></rect>
            <path d="M57.22,37.042 L52.949,35.821 L51.682,40.233 L55.953,41.454 L57.22,37.042 Z" id="Shape" sketch:type="MSShapeGroup"></path>
            <path d="M42.545,19.377 L38.273,18.156 L37.006,22.57 L41.278,23.792 L42.545,19.377 Z" id="Shape" sketch:type="MSShapeGroup"></path>
            <rect id="Rectangle-path" sketch:type="MSShapeGroup" transform="translate(29.398799, 11.270026) rotate(15.962711) translate(-29.398799, -11.270026) " x="27.177893" y="8.97512339" width="4.44181112" height="4.58980483"></rect>
            <rect id="Rectangle-path" sketch:type="MSShapeGroup" transform="translate(23.318179, 9.534916) rotate(15.955627) translate(-23.318179, -9.534916) " x="21.0956205" y="7.23935592" width="4.44511615" height="4.59111996"></rect>
            <path d="M83.384,3.699 C76.627,1.767 72.582,2.926 72.41,2.976 C72.103,3.069 71.864,3.31 71.775,3.621 L68.534,14.912 L18.403,0.577 C17.904,0.434 17.384,0.724 17.24,1.224 L14.666,10.2 L11.91,7.207 C11.652,6.928 11.253,6.828 10.9,6.961 C10.543,7.086 10.299,7.415 10.277,7.793 L8.991,29.98 L0.319,60.214 C0.177,60.714 0.466,61.235 0.965,61.379 L7.073,63.125 L6.731,69.046 C6.705,69.494 6.997,69.887 7.407,70.006 C7.474,70.025 7.545,70.036 7.616,70.039 L37.105,71.712 L61.845,78.787 C72.6,81.861 74.181,76.347 75.03,73.382 L89.779,21.968 L91.952,14.391 C93.026,10.647 90.114,5.625 83.384,3.699 L83.384,3.699 Z M20.265,5.292 C20.408,4.793 20.929,4.503 21.429,4.646 L63.999,16.818 C64.497,16.963 64.788,17.484 64.644,17.983 L55.147,51.099 C55.002,51.6 54.481,51.89 53.98,51.747 C53.482,51.602 53.193,51.081 53.335,50.582 L55.434,43.265 L51.163,42.044 L50.101,45.744 C49.956,46.244 49.437,46.535 48.938,46.391 C48.438,46.248 48.149,45.727 48.291,45.227 L49.353,41.526 L44.176,40.046 C43.676,39.903 43.387,39.383 43.531,38.882 L45.056,33.564 L40.784,32.343 L40.041,34.933 C39.897,35.433 39.375,35.723 38.875,35.58 C38.376,35.437 38.088,34.917 38.231,34.417 L38.973,31.825 L33.799,30.345 C33.299,30.202 33.01,29.68 33.153,29.182 L34.678,23.864 L30.405,22.641 L29.925,24.316 C29.782,24.816 29.261,25.107 28.761,24.964 C28.26,24.821 27.972,24.299 28.116,23.799 L30.381,15.898 L26.112,14.677 L24.88,18.971 C24.737,19.471 24.216,19.762 23.715,19.619 C23.215,19.474 22.926,18.953 23.07,18.454 L24.3,14.159 L19.307,12.731 C19.24,12.727 19.178,12.734 19.114,12.716 C18.614,12.573 18.324,12.051 18.467,11.551 L20.265,5.292 L20.265,5.292 Z M7.061,58.148 C6.92,58.647 6.398,58.936 5.898,58.794 C5.398,58.65 5.109,58.129 5.252,57.628 L6.278,54.054 C6.421,53.556 6.943,53.265 7.441,53.408 C7.942,53.55 8.23,54.071 8.087,54.572 L7.061,58.148 L7.061,58.148 Z M8.665,68.211 L12.029,10.119 L19.153,17.86 L17.048,19.739 C16.658,20.086 16.625,20.681 16.971,21.069 C17.094,21.209 17.247,21.301 17.413,21.347 C17.714,21.433 18.051,21.368 18.3,21.145 L20.429,19.245 L22.84,21.863 L20.722,23.753 C20.332,24.1 20.299,24.695 20.645,25.082 C20.769,25.222 20.922,25.314 21.087,25.361 C21.386,25.447 21.726,25.381 21.974,25.159 L24.115,23.248 L26.527,25.869 L24.398,27.767 C24.009,28.114 23.976,28.71 24.321,29.098 C24.446,29.236 24.599,29.328 24.763,29.376 C25.063,29.462 25.401,29.397 25.651,29.173 L27.8,27.254 L30.212,29.873 L28.073,31.782 C27.683,32.127 27.65,32.724 27.997,33.111 C28.119,33.251 28.273,33.342 28.438,33.39 C28.739,33.476 29.074,33.411 29.325,33.187 L31.486,31.257 L33.898,33.878 L31.747,35.795 C31.36,36.14 31.325,36.737 31.67,37.125 C31.793,37.263 31.948,37.355 32.112,37.401 C32.413,37.486 32.75,37.422 33,37.2 L35.171,35.261 L37.583,37.882 L35.422,39.809 C35.033,40.156 35.001,40.751 35.346,41.14 C35.47,41.278 35.623,41.369 35.787,41.417 C36.088,41.503 36.426,41.438 36.674,41.215 L38.856,39.267 L41.268,41.885 L39.098,43.823 C38.71,44.169 38.676,44.764 39.021,45.152 C39.144,45.292 39.299,45.382 39.463,45.43 C39.764,45.515 40.101,45.451 40.35,45.228 L42.544,43.271 L44.955,45.891 L42.776,47.835 C42.386,48.182 42.354,48.777 42.699,49.164 C42.822,49.302 42.977,49.395 43.139,49.443 C43.44,49.528 43.778,49.463 44.027,49.239 L46.229,47.276 L48.639,49.894 L46.448,51.848 C46.06,52.195 46.024,52.79 46.371,53.178 C46.494,53.319 46.647,53.41 46.812,53.456 C47.113,53.541 47.449,53.477 47.7,53.254 L49.914,51.277 L52.324,53.897 L50.124,55.862 C49.733,56.209 49.702,56.803 50.048,57.19 C50.17,57.329 50.325,57.42 50.489,57.469 C50.79,57.556 51.128,57.49 51.376,57.265 L53.6,55.282 L56.158,58.061 L54.854,62.611 C54.758,62.941 54.85,63.296 55.093,63.536 C55.335,63.779 55.69,63.869 56.022,63.773 C56.047,63.767 57.953,63.262 61.252,63.595 L68.635,71.613 L8.665,68.211 L8.665,68.211 Z M74.445,68.605 C73.202,66.146 70.529,63.852 66.464,62.69 C62.101,61.443 58.867,61.483 57.079,61.682 L73.429,4.677 C74.623,4.466 77.967,4.11 82.865,5.509 C89.033,7.274 90.836,11.463 90.142,13.873 L74.445,68.605 L74.445,68.605 Z" id="Shape" sketch:type="MSShapeGroup"></path>
            <rect id="Rectangle-path" sketch:type="MSShapeGroup" transform="translate(33.692711, 19.235753) rotate(15.955627) translate(-33.692711, -19.235753) " x="31.4711531" y="16.9391934" width="4.44311609" height="4.59312001"></rect>
            <path d="M38.249,11.416 L33.976,10.194 L32.71,14.605 L36.985,15.827 L38.249,11.416 Z" id="Shape" sketch:type="MSShapeGroup"></path>
            <path d="M44.33,13.154 L40.058,11.933 L38.792,16.345 L43.064,17.567 L44.33,13.154 Z" id="Shape" sketch:type="MSShapeGroup"></path>
            <path d="M46.84,27.341 L42.57,26.12 L41.303,30.532 L45.574,31.753 L46.84,27.341 Z" id="Shape" sketch:type="MSShapeGroup"></path>
            <rect id="Rectangle-path" sketch:type="MSShapeGroup" transform="translate(37.990235, 27.200060) rotate(15.955627) translate(-37.990235, -27.200060) " x="35.7686765" y="24.9054996" width="4.44311609" height="4.58911991"></rect>
        </g>
    </g>
</svg>