<svg xmlns="http://www.w3.org/2000/svg" xmlns:xlink="http://www.w3.org/1999/xlink" version="1.1" x="0px" y="0px" viewBox="-1141 791.8 100 125" style="enable-background:new -1141 791.8 100 100; stroke:#175047; fill: #175047;" xml:space="preserve"><path d="M-1048.6,853.1c1.3-4.1,2-8.5,2-13.1c0-18.7-11.7-35.4-29.3-41.7l0.3-2.7c0-0.2,0-0.4-0.1-0.6c-0.1-0.2-0.3-0.4-0.6-0.5  c-3.1-1-6.2-1.7-9.4-2c-0.5-0.1-0.9,0.3-1.1,0.7l-1.7,6.3c-0.9,0-1.7-0.1-2.6-0.1c-24.5,0-44.4,19.9-44.4,44.4  c0,18.3,11.3,34.8,28.3,41.4l-0.3,2.6c-0.1,0.5,0.2,0.9,0.7,1.1c3.1,1,6.2,1.7,9.4,2c0,0,0.1,0,0.1,0c0.4,0,0.8-0.3,0.9-0.7l1.6-6  c1.2,0.1,2.4,0.2,3.6,0.2C-1071.1,884.4-1054.2,871.3-1048.6,853.1C-1048.6,853.2-1048.6,853.1-1048.6,853.1z M-1085,794.6  c2.5,0.3,5,0.9,7.4,1.6l-0.3,2.7c-0.1,0.5,0.2,0.9,0.7,1l0,0c17.1,5.9,28.7,22,28.7,40.1c0,3.7-0.5,7.3-1.4,10.7  c-8.5-11.5-19.5-15.5-27-14.2c-4.2,0.7-7.2,3-8.5,6.3l-10.5-7.6L-1085,794.6z M-1084,844.7L-1084,844.7  C-1084,844.7-1084,844.7-1084,844.7c0.7-2.8,2.7-4.8,5.6-5.8c0,0.4,0,0.7,0,1.1c0,5.1-3,9.6-7.5,11.6L-1084,844.7z M-1086,852.3  c4.9-2,8.2-6.8,8.2-12.2c0-0.4,0-0.8-0.1-1.3c0.4-0.1,0.9-0.2,1.3-0.3c0.1,0,0.2,0,0.3,0c0.1,0.5,0.1,1.1,0.1,1.6  c0,6.5-4.3,12.3-10.4,14.2L-1086,852.3z M-1086.7,854.8c6.5-1.9,11.1-7.9,11.1-14.7c0-0.6,0-1.1-0.1-1.7c0.5-0.1,1.1-0.1,1.7-0.1  c0.1,0.6,0.1,1.2,0.1,1.8c0,7.9-5.6,14.9-13.2,16.6L-1086.7,854.8z M-1087.3,857.2c8-1.7,13.9-8.9,13.9-17.1c0-0.6,0-1.2-0.1-1.8  c0.6,0,1.1,0.1,1.7,0.1c0,0.6,0.1,1.1,0.1,1.7c0,9.5-6.8,17.4-16,19L-1087.3,857.2z M-1088,859.5c9.6-1.5,16.7-9.7,16.7-19.5  c0-0.5,0-1.1-0.1-1.6c0.6,0.1,1.1,0.2,1.7,0.3c0,0.4,0,0.8,0,1.3c0,10.8-8.2,19.9-18.8,21.2L-1088,859.5z M-1088.6,861.8  c11-1.2,19.5-10.6,19.5-21.7c0-0.4,0-0.8,0-1.1c0.6,0.1,1.1,0.3,1.7,0.5c0,0.2,0,0.4,0,0.6c0,12.4-9.4,22.5-21.6,23.5L-1088.6,861.8  z M-1089.2,864c12.5-0.9,22.2-11.3,22.2-24c0-0.2,0-0.3,0-0.5c0.6,0.2,1.1,0.4,1.7,0.7c-0.1,13.6-10.9,24.8-24.4,25.5L-1089.2,864z   M-1089.8,866.3c13.7-0.6,24.8-12,25-25.8c0.6,0.3,1.1,0.5,1.7,0.8c-0.7,14.5-12.6,26.2-27.1,26.6L-1089.8,866.3z M-1090.4,868.5  c14.8-0.3,26.9-12.1,27.7-26.8c0.5,0.3,1.1,0.6,1.6,1c-1.3,15.5-14.2,27.4-29.8,27.5L-1090.4,868.5z M-1090.9,870.6  c15.8,0,28.9-12.1,30.4-27.7c0.5,0.4,1,0.7,1.6,1.2c-1,7.6-4.6,14.6-10.3,19.8c-6,5.4-13.7,8.4-21.8,8.4c-0.1,0-0.3,0-0.4,0  L-1090.9,870.6z M-1091.5,872.8c0.2,0,0.3,0,0.5,0c8.2,0,16-3,22.1-8.6c5.7-5.2,9.4-12.2,10.4-19.8c0.5,0.4,1,0.8,1.5,1.3  c-2.7,16.5-17.2,28.8-34,28.8c-0.3,0-0.6,0-1,0L-1091.5,872.8z M-1092.1,875c0.4,0,0.7,0,1.1,0c16.9,0,31.5-12.3,34.4-28.9  c0.5,0.5,1,0.9,1.4,1.4c-3.5,17-18.4,29.2-35.9,29.2c-0.5,0-1,0-1.5-0.1L-1092.1,875z M-1092.7,877.1c0.6,0,1.1,0.1,1.7,0.1  c17.5,0,32.6-12.2,36.3-29.2c0.5,0.5,0.9,1,1.4,1.5c-4.3,17.1-20,29.4-37.6,29.4c-0.7,0-1.4,0-2.1-0.1L-1092.7,877.1z   M-1093.3,879.3c0.8,0,1.5,0.1,2.3,0.1c17.8,0,33.5-12.3,38-29.4c0.4,0.5,0.9,1.1,1.3,1.6c-5.1,17.4-21.1,29.4-39.3,29.4  c-0.9,0-1.8,0-2.7-0.1L-1093.3,879.3z M-1089.8,804.7c-0.4,0-0.9,0-1.3,0c-18.4,0-34.2,12.8-38.2,30.6c-0.5-0.4-0.9-0.9-1.4-1.3  c4.5-18,21-30.9,39.7-30.9c0.6,0,1.2,0,1.7,0.1L-1089.8,804.7z M-1091.1,805.1c0.4,0,0.8,0,1.2,0l-0.4,1.7c-0.2,0-0.5,0-0.7,0  c-8.9,0-17.4,3.2-24.1,9c-6.3,5.4-10.6,12.9-12.2,21c-0.5-0.4-1-0.8-1.5-1.2C-1125,817.9-1109.3,805.1-1091.1,805.1z M-1114.9,816.2  c6.6-5.7,15.1-8.9,23.8-8.9c0.2,0,0.4,0,0.6,0l-0.4,1.7c0,0-0.1,0-0.1,0c-17.1,0-31.6,12.5-34.4,29.2c-0.5-0.3-1-0.7-1.5-1.1  C-1125.5,829-1121.2,821.6-1114.9,816.2z M-1091.1,809.5C-1091.1,809.5-1091.1,809.5-1091.1,809.5l-0.4,1.7  c-16.3,0.2-29.8,12.2-31.9,28.3c-0.5-0.3-1-0.6-1.6-0.9C-1122.4,821.9-1108,809.5-1091.1,809.5z M-1091.7,811.7l-0.5,1.7  c-15.1,0.5-27.6,12.1-29.3,27.1c-0.5-0.3-1.1-0.5-1.6-0.8C-1121,823.8-1107.7,812-1091.7,811.7z M-1092.2,813.9l-0.5,1.7  c-14,0.8-25.4,11.9-26.6,25.8c-0.5-0.2-1.1-0.4-1.6-0.7C-1119.4,826-1107.1,814.5-1092.2,813.9z M-1092.8,816.1l-0.5,1.7  c-12.8,1.1-23,11.5-23.9,24.3c-0.5-0.1-1.1-0.3-1.6-0.5C-1117.7,827.9-1106.6,816.9-1092.8,816.1z M-1093.4,818.3l-0.5,1.7  c-11.5,1.4-20.5,10.9-21.1,22.5c-0.6-0.1-1.1-0.2-1.7-0.3C-1115.9,829.7-1105.9,819.5-1093.4,818.3z M-1094.1,820.6l-0.5,1.8  c-10.2,1.6-17.8,10.2-18.3,20.5c-0.6,0-1.1-0.1-1.7-0.2C-1113.9,831.4-1105.2,822-1094.1,820.6z M-1094.7,822.9l-0.5,1.8  c-8.6,1.8-15,9.4-15.5,18.1c-0.6,0-1.1,0-1.7,0C-1111.9,832.8-1104.5,824.5-1094.7,822.9z M-1095.3,825.2l-0.5,1.9  c-7.1,2-12.2,8.2-12.7,15.5c-0.6,0.1-1.1,0.2-1.7,0.2C-1109.7,834.3-1103.5,827.1-1095.3,825.2z M-1095.9,827.6l-0.5,2  c-5.3,2-9.1,6.9-9.8,12.5c-0.6,0.2-1.1,0.3-1.7,0.4C-1107.4,835.5-1102.7,829.6-1095.9,827.6z M-1096.6,830.2l-1.4,5.1  c-1.2,3-4.1,5.4-7.7,6.6C-1105,836.6-1101.5,832.1-1096.6,830.2z M-1091,801.5c0.7,0,1.4,0,2.1,0.1l-0.3,1c-0.6,0-1.3-0.1-1.9-0.1  c-18.7,0-35.4,13-40.1,31c-0.3-0.3-0.5-0.5-0.8-0.8C-1127,814.7-1110.5,801.5-1091,801.5z M-1097.9,889c-2.5-0.3-5-0.9-7.4-1.6  l0.3-2.6c0,0,0,0,0-0.1c0-0.1,0-0.1,0-0.2c0-0.1,0-0.1,0-0.2c0-0.1-0.1-0.1-0.1-0.2c0-0.1-0.1-0.1-0.1-0.2c0,0-0.1-0.1-0.1-0.1  c-0.1,0-0.1-0.1-0.2-0.1c0,0,0,0-0.1,0c-16.6-6.1-27.7-22.1-27.7-39.8c0-3.1,0.3-6,0.9-8.9c6.5,6.4,13.8,9.8,20.9,9.8  c1.3,0,2.5-0.1,3.7-0.3c5-0.9,9.1-3.7,11.1-7.4l10.7,7.7L-1097.9,889z M-1091,882.5c-1,0-2.1,0-3.1-0.1l0.2-0.9  c0.9,0.1,1.9,0.1,2.8,0.1c18.3,0,34.4-12,39.7-29.4c0.2,0.3,0.5,0.6,0.7,1C-1056.2,870.1-1072.2,882.5-1091,882.5z"/></svg>