<?xml version="1.0" encoding="UTF-8" standalone="no"?>
<svg viewBox="0 0 90 84" version="1.1" xmlns="http://www.w3.org/2000/svg" xmlns:xlink="http://www.w3.org/1999/xlink" xmlns:sketch="http://www.bohemiancoding.com/sketch/ns">
    <!-- Generator: Sketch 3.5.2 (25235) - http://www.bohemiancoding.com/sketch -->
    <title>icon-quality</title>
    <desc>Created with Sketch.</desc>
    <defs></defs>
    <g id="Page-1" stroke="none" stroke-width="1" fill="none" fill-rule="evenodd" sketch:type="MSPage">
        <g id="icon-quality" sketch:type="MSLayerGroup" transform="translate(-1.000000, 0.000000)" fill="#000000">
            <g id="Group" sketch:type="MSShapeGroup">
                <path d="M45.989,29.292 L46.419,29.723 L47.204,28.937 L47.636,29.369 L49.358,27.645 L48.065,26.353 L46.343,28.076 L46.774,28.506 L45.989,29.292 Z" id="Shape"></path>
                <path d="M89.309,80.754 L89.81,80.252 L83.464,73.906 L85.427,71.941 L46.778,33.294 L48.362,31.71 L45.534,28.883 C45.55,26.446 44.629,24.006 42.77,22.148 C40.911,20.289 38.47,19.368 36.034,19.383 L31.201,14.55 L32.081,13.669 L32.411,13.999 L37.559,8.85 C34.885,8.975 32.248,10.058 30.207,12.1 C29.402,12.904 28.746,13.801 28.24,14.756 L23.611,10.128 C24.566,9.621 25.464,8.966 26.268,8.161 C28.31,6.12 29.393,3.482 29.518,0.809 L23.644,6.683 L18.259,1.298 C18.021,1.061 17.636,1.06 17.398,1.298 L10.855,7.841 C7.614,11.082 6.312,14.43 1.74,22.527 C0.73,24.313 0.592,25.988 2.347,27.744 L16.554,13.54 L25.365,22.35 L22.697,25.019 L21.924,24.247 L10.386,35.783 C12.143,37.539 13.818,37.399 15.603,36.39 C20.087,33.858 23.115,32.328 25.474,30.918 C26.031,30.647 26.464,30.546 26.813,30.552 C27.103,32.117 27.792,33.623 28.876,34.907 L28.452,35.332 L28.128,35.01 L26.405,36.733 L28.128,38.456 L29.851,36.733 L29.529,36.41 L29.949,35.99 C30.969,36.866 32.131,37.49 33.353,37.859 L35.199,39.706 C34.486,40.42 34.486,41.576 35.199,42.29 C35.914,43.004 37.07,43.004 37.784,42.29 L41.545,38.529 L80.193,77.178 L82.217,75.153 L90.255,83.19 L91,82.445 L89.309,80.754 L89.309,80.754 Z M29.634,35.284 C26.066,31.717 26.066,25.931 29.634,22.363 C33.202,18.795 38.988,18.795 42.555,22.363 C46.122,25.931 46.123,31.717 42.555,35.284 C38.987,38.852 33.202,38.852 29.634,35.284 L29.634,35.284 Z" id="Shape"></path>
            </g>
            <path d="M42.017,34.96 L40.832,33.776 C40.772,33.716 40.772,33.62 40.832,33.56 C40.892,33.5 40.987,33.5 41.048,33.56 L42.232,34.745 C42.292,34.805 42.292,34.901 42.232,34.96 C42.173,35.02 42.075,35.02 42.017,34.96 L42.017,34.96 Z" id="Shape" sketch:type="MSShapeGroup"></path>
            <path d="M40.832,24.085 C40.772,24.025 40.772,23.929 40.832,23.87 L42.017,22.685 C42.076,22.625 42.173,22.625 42.232,22.685 C42.292,22.745 42.292,22.84 42.232,22.9 L41.048,24.085 C40.987,24.145 40.892,24.145 40.832,24.085 L40.832,24.085 Z" id="Shape" sketch:type="MSShapeGroup"></path>
            <path d="M31.142,24.085 L29.956,22.9 C29.897,22.84 29.897,22.745 29.956,22.685 C30.017,22.625 30.112,22.625 30.172,22.685 L31.357,23.87 C31.417,23.929 31.417,24.025 31.357,24.085 C31.297,24.145 31.2,24.145 31.142,24.085 L31.142,24.085 Z" id="Shape" sketch:type="MSShapeGroup"></path>
            <path d="M29.956,34.96 C29.897,34.901 29.897,34.805 29.956,34.745 L31.142,33.56 C31.201,33.5 31.297,33.5 31.357,33.56 C31.416,33.62 31.417,33.716 31.357,33.776 L30.172,34.96 C30.112,35.02 30.017,35.02 29.956,34.96 L29.956,34.96 Z" id="Shape" sketch:type="MSShapeGroup"></path>
            <path d="M41.921,32.357 C41.874,32.31 41.862,32.235 41.898,32.173 C41.94,32.101 42.033,32.075 42.105,32.117 L43.556,32.955 C43.628,32.997 43.654,33.09 43.612,33.163 C43.57,33.235 43.476,33.261 43.404,33.219 L41.953,32.381 C41.94,32.375 41.931,32.367 41.921,32.357 L41.921,32.357 Z" id="Shape" sketch:type="MSShapeGroup"></path>
            <path d="M42.604,30.705 C42.567,30.668 42.55,30.612 42.565,30.558 C42.586,30.477 42.67,30.429 42.752,30.451 L44.37,30.885 C44.452,30.906 44.5,30.99 44.478,31.072 C44.456,31.153 44.373,31.201 44.291,31.179 L42.672,30.745 C42.646,30.737 42.623,30.723 42.604,30.705 L42.604,30.705 Z" id="Shape" sketch:type="MSShapeGroup"></path>
            <path id="Shape" sketch:type="MSShapeGroup" d="M42.839,28.931 C42.812,28.904 42.794,28.866 42.794,28.824 C42.794,28.74 42.862,28.672 42.946,28.672 L44.622,28.672 C44.706,28.672 44.774,28.74 44.774,28.824 C44.774,28.908 44.706,28.976 44.622,28.976 L42.946,28.976 C42.905,28.976 42.866,28.958 42.839,28.931 L42.839,28.931 Z"></path>
            <path d="M42.604,27.158 C42.586,27.139 42.573,27.116 42.565,27.09 C42.544,27.009 42.591,26.925 42.672,26.903 L44.291,26.469 C44.372,26.448 44.455,26.495 44.477,26.576 C44.499,26.657 44.452,26.741 44.37,26.763 L42.752,27.197 C42.697,27.211 42.642,27.195 42.604,27.158 L42.604,27.158 Z" id="Shape" sketch:type="MSShapeGroup"></path>
            <path d="M41.921,25.504 C41.912,25.495 41.903,25.484 41.898,25.473 C41.855,25.4 41.88,25.307 41.954,25.265 L43.404,24.427 C43.476,24.385 43.57,24.41 43.612,24.484 C43.654,24.556 43.629,24.65 43.556,24.692 L42.105,25.529 C42.044,25.564 41.969,25.552 41.921,25.504 L41.921,25.504 Z" id="Shape" sketch:type="MSShapeGroup"></path>
            <path d="M39.413,22.997 C39.365,22.949 39.353,22.874 39.389,22.812 L40.226,21.362 C40.269,21.29 40.362,21.264 40.435,21.306 C40.507,21.348 40.533,21.442 40.49,21.514 L39.654,22.964 C39.611,23.037 39.518,23.062 39.445,23.02 C39.433,23.013 39.423,23.005 39.413,22.997 L39.413,22.997 Z" id="Shape" sketch:type="MSShapeGroup"></path>
            <path d="M37.76,22.313 C37.723,22.276 37.706,22.22 37.72,22.166 L38.155,20.548 C38.176,20.467 38.259,20.418 38.342,20.44 C38.423,20.462 38.471,20.545 38.449,20.627 L38.015,22.246 C37.994,22.327 37.91,22.375 37.828,22.353 C37.802,22.345 37.778,22.332 37.76,22.313 L37.76,22.313 Z" id="Shape" sketch:type="MSShapeGroup"></path>
            <path id="Shape" sketch:type="MSShapeGroup" d="M35.986,22.079 C35.959,22.052 35.942,22.014 35.942,21.972 L35.942,20.296 C35.942,20.212 36.01,20.144 36.094,20.145 C36.178,20.145 36.246,20.213 36.246,20.296 L36.246,21.972 C36.246,22.056 36.178,22.124 36.094,22.123 C36.052,22.124 36.015,22.106 35.986,22.079 L35.986,22.079 Z"></path>
            <path d="M34.213,22.313 C34.194,22.294 34.181,22.271 34.174,22.245 L33.74,20.626 C33.718,20.545 33.766,20.462 33.847,20.439 C33.928,20.418 34.012,20.465 34.034,20.547 L34.468,22.165 C34.489,22.246 34.442,22.33 34.361,22.352 C34.306,22.367 34.251,22.35 34.213,22.313 L34.213,22.313 Z" id="Shape" sketch:type="MSShapeGroup"></path>
            <path d="M32.56,22.997 C32.552,22.987 32.543,22.976 32.537,22.965 L31.699,21.515 C31.658,21.443 31.682,21.349 31.756,21.307 C31.828,21.265 31.922,21.29 31.963,21.363 L32.801,22.813 C32.843,22.886 32.819,22.979 32.745,23.021 C32.683,23.056 32.608,23.043 32.56,22.997 L32.56,22.997 Z" id="Shape" sketch:type="MSShapeGroup"></path>
            <path d="M28.601,24.667 C28.554,24.619 28.542,24.544 28.578,24.483 C28.62,24.41 28.713,24.384 28.786,24.427 L30.236,25.264 C30.308,25.306 30.334,25.399 30.293,25.472 C30.25,25.545 30.157,25.57 30.084,25.528 L28.634,24.691 C28.621,24.685 28.61,24.676 28.601,24.667 L28.601,24.667 Z" id="Shape" sketch:type="MSShapeGroup"></path>
            <path d="M27.749,26.724 C27.712,26.687 27.696,26.631 27.71,26.577 C27.731,26.496 27.815,26.448 27.897,26.47 L29.516,26.904 C29.597,26.926 29.646,27.009 29.623,27.091 C29.602,27.172 29.519,27.221 29.436,27.198 L27.817,26.764 C27.791,26.756 27.769,26.743 27.749,26.724 L27.749,26.724 Z" id="Shape" sketch:type="MSShapeGroup"></path>
            <path id="Shape" sketch:type="MSShapeGroup" d="M27.459,28.931 C27.432,28.904 27.415,28.866 27.415,28.824 C27.415,28.739 27.482,28.672 27.567,28.672 L29.241,28.672 C29.325,28.672 29.393,28.739 29.393,28.824 C29.393,28.908 29.325,28.976 29.241,28.976 L27.567,28.976 C27.524,28.976 27.487,28.958 27.459,28.931 L27.459,28.931 Z"></path>
            <path d="M27.749,31.138 C27.731,31.119 27.718,31.096 27.71,31.07 C27.689,30.989 27.737,30.905 27.817,30.883 L29.436,30.449 C29.517,30.428 29.6,30.475 29.623,30.556 C29.644,30.637 29.597,30.721 29.515,30.743 L27.897,31.177 C27.843,31.192 27.786,31.175 27.749,31.138 L27.749,31.138 Z" id="Shape" sketch:type="MSShapeGroup"></path>
            <path d="M28.602,33.195 C28.593,33.186 28.584,33.175 28.578,33.164 C28.536,33.091 28.56,32.998 28.634,32.956 L30.084,32.118 C30.157,32.076 30.25,32.101 30.292,32.174 C30.334,32.247 30.309,32.34 30.236,32.382 L28.786,33.22 C28.724,33.254 28.649,33.243 28.602,33.195 L28.602,33.195 Z" id="Shape" sketch:type="MSShapeGroup"></path>
            <path d="M31.723,36.316 C31.675,36.269 31.663,36.193 31.699,36.132 L32.537,34.682 C32.579,34.609 32.672,34.584 32.744,34.626 C32.817,34.668 32.843,34.761 32.801,34.834 L31.963,36.284 C31.922,36.357 31.828,36.382 31.756,36.34 C31.743,36.333 31.731,36.326 31.723,36.316 L31.723,36.316 Z" id="Shape" sketch:type="MSShapeGroup"></path>
            <path d="M33.78,37.168 C33.742,37.131 33.725,37.075 33.74,37.021 L34.174,35.402 C34.195,35.321 34.278,35.273 34.361,35.295 C34.442,35.316 34.49,35.4 34.468,35.482 L34.034,37.1 C34.013,37.181 33.929,37.229 33.847,37.207 C33.821,37.201 33.798,37.186 33.78,37.168 L33.78,37.168 Z" id="Shape" sketch:type="MSShapeGroup"></path>
            <path id="Shape" sketch:type="MSShapeGroup" d="M35.986,37.458 C35.959,37.431 35.942,37.393 35.942,37.351 L35.942,35.676 C35.942,35.591 36.01,35.524 36.094,35.524 C36.178,35.524 36.246,35.591 36.246,35.676 L36.246,37.351 C36.246,37.435 36.178,37.503 36.094,37.503 C36.052,37.503 36.015,37.486 35.986,37.458 L35.986,37.458 Z"></path>
            <path d="M38.193,37.167 C38.174,37.149 38.161,37.126 38.154,37.1 L37.719,35.481 C37.698,35.4 37.746,35.316 37.827,35.294 C37.908,35.272 37.992,35.32 38.014,35.401 L38.448,37.02 C38.469,37.101 38.422,37.185 38.341,37.207 C38.286,37.222 38.23,37.206 38.193,37.167 L38.193,37.167 Z" id="Shape" sketch:type="MSShapeGroup"></path>
            <path d="M40.251,36.316 C40.241,36.307 40.233,36.296 40.226,36.285 L39.389,34.835 C39.347,34.762 39.372,34.669 39.445,34.627 C39.518,34.585 39.611,34.61 39.653,34.683 L40.49,36.133 C40.533,36.206 40.508,36.299 40.435,36.341 C40.373,36.375 40.298,36.364 40.251,36.316 L40.251,36.316 Z" id="Shape" sketch:type="MSShapeGroup"></path>
            <path d="M41.872,33.77 C41.845,33.743 41.842,33.698 41.867,33.667 C41.894,33.635 41.942,33.631 41.974,33.657 L42.675,34.246 C42.707,34.271 42.711,34.321 42.684,34.353 C42.658,34.385 42.61,34.389 42.577,34.362 L41.876,33.774 C41.875,33.773 41.874,33.772 41.872,33.77 L41.872,33.77 Z" id="Shape" sketch:type="MSShapeGroup"></path>
            <path d="M42.276,33.244 C42.251,33.219 42.246,33.178 42.268,33.146 C42.291,33.112 42.338,33.103 42.373,33.127 L43.122,33.651 C43.156,33.675 43.165,33.723 43.141,33.757 C43.118,33.791 43.07,33.8 43.036,33.776 L42.286,33.252 C42.282,33.25 42.279,33.247 42.276,33.244 L42.276,33.244 Z" id="Shape" sketch:type="MSShapeGroup"></path>
            <path d="M42.942,32.095 C42.921,32.074 42.913,32.039 42.926,32.009 C42.945,31.971 42.989,31.954 43.028,31.973 L43.854,32.358 C43.893,32.377 43.909,32.421 43.891,32.46 C43.873,32.499 43.829,32.515 43.789,32.497 L42.963,32.111 C42.956,32.107 42.948,32.102 42.942,32.095 L42.942,32.095 Z" id="Shape" sketch:type="MSShapeGroup"></path>
            <path id="Shape" sketch:type="MSShapeGroup" d="M43.195,31.482 C43.174,31.461 43.167,31.43 43.177,31.402 C43.192,31.362 43.235,31.341 43.274,31.356 L44.133,31.668 C44.172,31.683 44.193,31.726 44.178,31.766 C44.164,31.805 44.12,31.826 44.08,31.812 L43.224,31.5 C43.212,31.496 43.202,31.489 43.195,31.482 L43.195,31.482 Z"></path>
            <path id="Shape" sketch:type="MSShapeGroup" d="M43.537,30.199 C43.52,30.182 43.512,30.158 43.516,30.133 C43.523,30.091 43.563,30.064 43.604,30.071 L44.504,30.229 C44.546,30.237 44.574,30.276 44.566,30.318 C44.558,30.359 44.519,30.386 44.478,30.38 L43.577,30.221 C43.562,30.217 43.548,30.209 43.537,30.199 L43.537,30.199 Z"></path>
            <path id="Shape" sketch:type="MSShapeGroup" d="M43.624,29.541 C43.608,29.526 43.601,29.504 43.603,29.48 C43.607,29.439 43.643,29.408 43.685,29.412 L44.596,29.491 C44.638,29.495 44.669,29.532 44.665,29.574 C44.661,29.615 44.624,29.646 44.583,29.642 L43.671,29.563 C43.653,29.561 43.636,29.553 43.624,29.541 L43.624,29.541 Z"></path>
            <path id="Shape" sketch:type="MSShapeGroup" d="M43.624,28.213 C43.612,28.201 43.604,28.185 43.603,28.166 C43.599,28.124 43.63,28.087 43.671,28.084 L44.583,28.004 C44.624,28 44.661,28.031 44.665,28.073 C44.669,28.115 44.638,28.152 44.597,28.155 L43.685,28.235 C43.661,28.238 43.64,28.229 43.624,28.213 L43.624,28.213 Z"></path>
            <path id="Shape" sketch:type="MSShapeGroup" d="M43.537,27.555 C43.526,27.544 43.518,27.531 43.516,27.515 C43.508,27.473 43.536,27.434 43.577,27.426 L44.479,27.268 C44.52,27.26 44.559,27.288 44.567,27.33 C44.574,27.371 44.546,27.411 44.505,27.418 L43.605,27.577 C43.579,27.581 43.554,27.572 43.537,27.555 L43.537,27.555 Z"></path>
            <path id="Shape" sketch:type="MSShapeGroup" d="M43.195,26.273 C43.187,26.265 43.181,26.256 43.177,26.246 C43.162,26.206 43.183,26.162 43.223,26.148 L44.08,25.836 C44.12,25.821 44.164,25.842 44.178,25.881 C44.193,25.921 44.172,25.965 44.133,25.979 L43.275,26.291 C43.247,26.301 43.216,26.293 43.195,26.273 L43.195,26.273 Z"></path>
            <path d="M42.942,25.659 C42.936,25.653 42.93,25.645 42.926,25.638 C42.908,25.6 42.926,25.554 42.963,25.536 L43.789,25.151 C43.828,25.132 43.873,25.15 43.891,25.187 C43.909,25.225 43.893,25.271 43.854,25.289 L43.028,25.675 C42.999,25.688 42.964,25.681 42.942,25.659 L42.942,25.659 Z" id="Shape" sketch:type="MSShapeGroup"></path>
            <path d="M42.276,24.511 C42.273,24.507 42.27,24.504 42.268,24.5 C42.243,24.466 42.251,24.418 42.286,24.395 L43.036,23.87 C43.07,23.847 43.118,23.855 43.141,23.889 C43.165,23.924 43.157,23.971 43.122,23.995 L42.373,24.519 C42.343,24.541 42.302,24.537 42.276,24.511 L42.276,24.511 Z" id="Shape" sketch:type="MSShapeGroup"></path>
            <path d="M41.872,23.984 C41.87,23.983 41.868,23.981 41.867,23.979 C41.841,23.947 41.845,23.899 41.876,23.873 L42.577,23.284 C42.61,23.257 42.658,23.261 42.684,23.294 C42.711,23.326 42.707,23.374 42.675,23.4 L41.974,23.989 C41.944,24.014 41.899,24.012 41.872,23.984 L41.872,23.984 Z" id="Shape" sketch:type="MSShapeGroup"></path>
            <path d="M40.933,23.045 C40.906,23.018 40.904,22.973 40.929,22.942 L41.517,22.241 C41.544,22.209 41.593,22.205 41.624,22.232 C41.656,22.257 41.661,22.307 41.634,22.338 L41.046,23.039 C41.019,23.071 40.971,23.076 40.939,23.049 C40.937,23.048 40.935,23.047 40.933,23.045 L40.933,23.045 Z" id="Shape" sketch:type="MSShapeGroup"></path>
            <path d="M40.407,22.641 C40.382,22.616 40.377,22.575 40.398,22.543 L40.922,21.794 C40.946,21.76 40.994,21.751 41.027,21.775 C41.062,21.798 41.07,21.846 41.047,21.88 L40.522,22.63 C40.499,22.664 40.452,22.672 40.417,22.649 C40.413,22.647 40.409,22.644 40.407,22.641 L40.407,22.641 Z" id="Shape" sketch:type="MSShapeGroup"></path>
            <path d="M39.259,21.975 C39.238,21.954 39.23,21.919 39.243,21.889 L39.629,21.063 C39.648,21.025 39.692,21.008 39.731,21.026 C39.77,21.044 39.785,21.088 39.767,21.127 L39.382,21.954 C39.364,21.992 39.319,22.009 39.28,21.991 C39.272,21.987 39.265,21.981 39.259,21.975 L39.259,21.975 Z" id="Shape" sketch:type="MSShapeGroup"></path>
            <path id="Shape" sketch:type="MSShapeGroup" d="M38.645,21.722 C38.624,21.702 38.617,21.671 38.627,21.643 L38.939,20.784 C38.954,20.745 38.997,20.724 39.037,20.739 C39.076,20.753 39.097,20.797 39.082,20.837 L38.77,21.695 C38.754,21.734 38.711,21.755 38.672,21.74 C38.661,21.736 38.652,21.73 38.645,21.722 L38.645,21.722 Z"></path>
            <path id="Shape" sketch:type="MSShapeGroup" d="M37.362,21.38 C37.344,21.363 37.337,21.338 37.341,21.313 L37.5,20.413 C37.507,20.371 37.547,20.344 37.589,20.351 C37.63,20.359 37.657,20.398 37.65,20.44 L37.492,21.34 C37.484,21.382 37.445,21.409 37.404,21.402 C37.387,21.399 37.373,21.391 37.362,21.38 L37.362,21.38 Z"></path>
            <path id="Shape" sketch:type="MSShapeGroup" d="M36.704,21.293 C36.688,21.277 36.68,21.256 36.682,21.232 L36.762,20.321 C36.765,20.279 36.802,20.248 36.845,20.252 C36.886,20.256 36.917,20.292 36.913,20.334 L36.833,21.246 C36.83,21.288 36.793,21.318 36.751,21.315 C36.732,21.314 36.716,21.305 36.704,21.293 L36.704,21.293 Z"></path>
            <path id="Shape" sketch:type="MSShapeGroup" d="M35.377,21.293 C35.364,21.281 35.356,21.265 35.355,21.246 L35.275,20.335 C35.272,20.293 35.302,20.256 35.345,20.252 C35.386,20.248 35.423,20.279 35.427,20.321 L35.507,21.232 C35.511,21.274 35.48,21.311 35.438,21.315 C35.414,21.318 35.392,21.309 35.377,21.293 L35.377,21.293 Z"></path>
            <path id="Shape" sketch:type="MSShapeGroup" d="M34.719,21.38 C34.708,21.369 34.7,21.356 34.698,21.339 L34.539,20.439 C34.532,20.397 34.56,20.358 34.601,20.35 C34.642,20.343 34.681,20.371 34.689,20.412 L34.847,21.313 C34.855,21.355 34.827,21.394 34.786,21.402 C34.761,21.406 34.735,21.397 34.719,21.38 L34.719,21.38 Z"></path>
            <path id="Shape" sketch:type="MSShapeGroup" d="M33.437,21.722 C33.429,21.714 33.423,21.705 33.419,21.695 L33.107,20.837 C33.092,20.797 33.113,20.753 33.152,20.739 C33.191,20.724 33.236,20.745 33.25,20.784 L33.562,21.642 C33.577,21.682 33.556,21.726 33.517,21.74 C33.487,21.75 33.456,21.743 33.437,21.722 L33.437,21.722 Z"></path>
            <path d="M32.821,21.975 C32.815,21.969 32.81,21.961 32.806,21.954 L32.42,21.127 C32.402,21.089 32.419,21.044 32.457,21.026 C32.495,21.008 32.541,21.025 32.559,21.063 L32.944,21.889 C32.962,21.927 32.946,21.972 32.908,21.991 C32.878,22.004 32.844,21.998 32.821,21.975 L32.821,21.975 Z" id="Shape" sketch:type="MSShapeGroup"></path>
            <path d="M31.147,23.046 C31.145,23.044 31.144,23.042 31.143,23.04 L30.554,22.339 C30.527,22.308 30.532,22.259 30.563,22.233 C30.596,22.206 30.644,22.209 30.67,22.242 L31.259,22.943 C31.285,22.975 31.281,23.023 31.249,23.05 C31.22,23.076 31.175,23.074 31.147,23.046 L31.147,23.046 Z" id="Shape" sketch:type="MSShapeGroup"></path>
            <path d="M31.674,22.641 C31.671,22.638 31.668,22.634 31.665,22.631 L31.141,21.881 C31.117,21.847 31.125,21.8 31.16,21.776 C31.195,21.752 31.242,21.76 31.266,21.795 L31.79,22.544 C31.813,22.578 31.806,22.626 31.771,22.65 C31.741,22.671 31.7,22.667 31.674,22.641 L31.674,22.641 Z" id="Shape" sketch:type="MSShapeGroup"></path>
            <path d="M29.508,23.396 C29.48,23.369 29.478,23.324 29.503,23.293 C29.53,23.261 29.579,23.256 29.61,23.283 L30.311,23.872 C30.342,23.897 30.348,23.946 30.321,23.978 C30.294,24.01 30.246,24.015 30.214,23.988 L29.513,23.4 C29.511,23.399 29.509,23.397 29.508,23.396 L29.508,23.396 Z" id="Shape" sketch:type="MSShapeGroup"></path>
            <path d="M29.056,23.986 C29.03,23.961 29.025,23.92 29.046,23.888 C29.071,23.854 29.118,23.845 29.152,23.869 L29.901,24.393 C29.936,24.417 29.944,24.465 29.921,24.499 C29.897,24.533 29.849,24.542 29.815,24.518 L29.066,23.994 C29.062,23.992 29.058,23.989 29.056,23.986 L29.056,23.986 Z" id="Shape" sketch:type="MSShapeGroup"></path>
            <path d="M28.312,25.273 C28.291,25.252 28.283,25.217 28.296,25.187 C28.315,25.149 28.36,25.132 28.398,25.151 L29.225,25.536 C29.263,25.555 29.279,25.599 29.261,25.638 C29.243,25.677 29.199,25.693 29.16,25.675 L28.333,25.289 C28.325,25.285 28.317,25.28 28.312,25.273 L28.312,25.273 Z" id="Shape" sketch:type="MSShapeGroup"></path>
            <path id="Shape" sketch:type="MSShapeGroup" d="M28.027,25.96 C28.006,25.939 27.999,25.909 28.008,25.88 C28.024,25.841 28.067,25.82 28.106,25.835 L28.965,26.147 C29.004,26.161 29.025,26.205 29.01,26.245 C28.996,26.284 28.952,26.305 28.912,26.29 L28.054,25.978 C28.044,25.974 28.034,25.968 28.027,25.96 L28.027,25.96 Z"></path>
            <path id="Shape" sketch:type="MSShapeGroup" d="M27.643,27.397 C27.626,27.379 27.617,27.355 27.622,27.33 C27.629,27.288 27.669,27.261 27.711,27.268 L28.611,27.426 C28.652,27.434 28.68,27.473 28.673,27.515 C28.665,27.556 28.626,27.583 28.584,27.577 L27.683,27.418 C27.667,27.415 27.653,27.407 27.643,27.397 L27.643,27.397 Z"></path>
            <path id="Shape" sketch:type="MSShapeGroup" d="M27.546,28.134 C27.53,28.118 27.522,28.097 27.524,28.073 C27.527,28.031 27.564,28 27.607,28.004 L28.517,28.083 C28.56,28.087 28.59,28.124 28.587,28.166 C28.583,28.208 28.546,28.239 28.504,28.235 L27.593,28.155 C27.574,28.155 27.558,28.146 27.546,28.134 L27.546,28.134 Z"></path>
            <path id="Shape" sketch:type="MSShapeGroup" d="M27.546,29.621 C27.533,29.608 27.525,29.592 27.524,29.574 C27.52,29.532 27.551,29.495 27.593,29.491 L28.504,29.411 C28.546,29.408 28.583,29.438 28.587,29.48 C28.59,29.522 28.56,29.559 28.517,29.563 L27.607,29.642 C27.583,29.644 27.561,29.636 27.546,29.621 L27.546,29.621 Z"></path>
            <path id="Shape" sketch:type="MSShapeGroup" d="M27.643,30.358 C27.632,30.347 27.624,30.334 27.622,30.317 C27.614,30.276 27.642,30.237 27.683,30.229 L28.584,30.07 C28.626,30.063 28.665,30.091 28.673,30.132 C28.68,30.173 28.652,30.213 28.611,30.22 L27.711,30.379 C27.685,30.383 27.659,30.375 27.643,30.358 L27.643,30.358 Z"></path>
            <path id="Shape" sketch:type="MSShapeGroup" d="M28.027,31.793 C28.019,31.786 28.012,31.776 28.008,31.766 C27.994,31.726 28.015,31.683 28.055,31.668 L28.912,31.356 C28.951,31.341 28.996,31.362 29.01,31.402 C29.025,31.441 29.004,31.485 28.965,31.5 L28.106,31.812 C28.078,31.822 28.048,31.814 28.027,31.793 L28.027,31.793 Z"></path>
            <path d="M28.312,32.481 C28.306,32.475 28.3,32.467 28.296,32.46 C28.278,32.422 28.296,32.377 28.333,32.358 L29.16,31.973 C29.198,31.954 29.243,31.971 29.261,32.009 C29.279,32.047 29.263,32.093 29.224,32.111 L28.398,32.497 C28.368,32.51 28.333,32.503 28.312,32.481 L28.312,32.481 Z" id="Shape" sketch:type="MSShapeGroup"></path>
            <path d="M29.056,33.768 C29.052,33.765 29.05,33.762 29.046,33.758 C29.023,33.724 29.03,33.676 29.066,33.652 L29.815,33.128 C29.849,33.104 29.897,33.113 29.921,33.147 C29.944,33.181 29.937,33.229 29.901,33.253 L29.152,33.777 C29.122,33.798 29.081,33.794 29.056,33.768 L29.056,33.768 Z" id="Shape" sketch:type="MSShapeGroup"></path>
            <path d="M29.508,34.359 C29.507,34.357 29.505,34.355 29.503,34.354 C29.477,34.322 29.481,34.273 29.513,34.247 L30.214,33.658 C30.246,33.632 30.295,33.635 30.321,33.668 C30.348,33.7 30.343,33.748 30.311,33.775 L29.61,34.363 C29.58,34.388 29.536,34.386 29.508,34.359 L29.508,34.359 Z" id="Shape" sketch:type="MSShapeGroup"></path>
            <path d="M30.56,35.41 C30.532,35.383 30.529,35.338 30.555,35.307 L31.144,34.606 C31.17,34.574 31.218,34.57 31.25,34.596 C31.282,34.621 31.286,34.671 31.259,34.703 L30.671,35.404 C30.644,35.436 30.597,35.44 30.564,35.414 C30.562,35.413 30.561,35.412 30.56,35.41 L30.56,35.41 Z" id="Shape" sketch:type="MSShapeGroup"></path>
            <path d="M31.149,35.863 C31.124,35.837 31.119,35.796 31.14,35.765 L31.664,35.015 C31.688,34.981 31.736,34.973 31.77,34.996 C31.804,35.02 31.813,35.068 31.789,35.102 L31.265,35.851 C31.241,35.886 31.194,35.894 31.159,35.87 C31.155,35.869 31.152,35.866 31.149,35.863 L31.149,35.863 Z" id="Shape" sketch:type="MSShapeGroup"></path>
            <path d="M32.437,36.606 C32.416,36.584 32.408,36.549 32.421,36.52 L32.807,35.693 C32.826,35.655 32.87,35.638 32.908,35.657 C32.947,35.675 32.963,35.719 32.945,35.758 L32.56,36.585 C32.542,36.623 32.497,36.64 32.458,36.621 C32.45,36.617 32.442,36.612 32.437,36.606 L32.437,36.606 Z" id="Shape" sketch:type="MSShapeGroup"></path>
            <path id="Shape" sketch:type="MSShapeGroup" d="M33.124,36.89 C33.103,36.87 33.096,36.839 33.106,36.81 L33.418,35.953 C33.432,35.913 33.476,35.892 33.516,35.907 C33.555,35.922 33.576,35.965 33.561,36.005 L33.249,36.863 C33.235,36.902 33.19,36.923 33.151,36.908 C33.141,36.904 33.132,36.898 33.124,36.89 L33.124,36.89 Z"></path>
            <path id="Shape" sketch:type="MSShapeGroup" d="M34.56,37.275 C34.542,37.258 34.535,37.234 34.539,37.208 L34.698,36.308 C34.705,36.267 34.745,36.239 34.787,36.246 C34.828,36.253 34.855,36.293 34.848,36.334 L34.69,37.235 C34.682,37.276 34.643,37.303 34.602,37.297 C34.584,37.293 34.57,37.286 34.56,37.275 L34.56,37.275 Z"></path>
            <path id="Shape" sketch:type="MSShapeGroup" d="M35.298,37.373 C35.282,37.357 35.273,37.336 35.276,37.312 L35.355,36.401 C35.359,36.359 35.396,36.328 35.438,36.332 C35.48,36.336 35.511,36.372 35.507,36.414 L35.427,37.325 C35.423,37.367 35.386,37.398 35.345,37.394 C35.325,37.393 35.31,37.384 35.298,37.373 L35.298,37.373 Z"></path>
            <path id="Shape" sketch:type="MSShapeGroup" d="M36.784,37.373 C36.771,37.36 36.763,37.344 36.762,37.325 L36.682,36.414 C36.679,36.372 36.709,36.336 36.751,36.332 C36.793,36.328 36.83,36.359 36.833,36.401 L36.913,37.312 C36.917,37.354 36.886,37.39 36.845,37.394 C36.821,37.396 36.799,37.387 36.784,37.373 L36.784,37.373 Z"></path>
            <path id="Shape" sketch:type="MSShapeGroup" d="M37.521,37.275 C37.511,37.264 37.503,37.251 37.5,37.235 L37.341,36.334 C37.334,36.293 37.362,36.253 37.403,36.246 C37.444,36.238 37.483,36.267 37.491,36.308 L37.649,37.209 C37.657,37.25 37.629,37.289 37.588,37.297 C37.563,37.301 37.538,37.292 37.521,37.275 L37.521,37.275 Z"></path>
            <path id="Shape" sketch:type="MSShapeGroup" d="M38.957,36.89 C38.949,36.882 38.943,36.873 38.938,36.863 L38.626,36.005 C38.611,35.965 38.632,35.922 38.672,35.907 C38.711,35.892 38.754,35.913 38.77,35.953 L39.082,36.81 C39.096,36.85 39.075,36.894 39.035,36.908 C39.009,36.918 38.978,36.911 38.957,36.89 L38.957,36.89 Z"></path>
            <path d="M39.644,36.606 C39.638,36.6 39.633,36.592 39.629,36.585 L39.243,35.758 C39.225,35.72 39.242,35.675 39.28,35.657 C39.319,35.639 39.364,35.656 39.382,35.693 L39.767,36.52 C39.785,36.558 39.769,36.603 39.731,36.621 C39.7,36.635 39.666,36.627 39.644,36.606 L39.644,36.606 Z" id="Shape" sketch:type="MSShapeGroup"></path>
            <path d="M40.932,35.863 C40.929,35.86 40.926,35.856 40.923,35.852 L40.399,35.103 C40.375,35.069 40.383,35.021 40.418,34.997 C40.453,34.974 40.5,34.982 40.523,35.017 L41.048,35.766 C41.071,35.8 41.064,35.848 41.028,35.871 C40.999,35.892 40.957,35.888 40.932,35.863 L40.932,35.863 Z" id="Shape" sketch:type="MSShapeGroup"></path>
            <path d="M41.522,35.41 C41.52,35.409 41.518,35.407 41.516,35.405 L40.928,34.704 C40.901,34.672 40.906,34.624 40.938,34.597 C40.97,34.571 41.018,34.575 41.045,34.607 L41.633,35.308 C41.66,35.34 41.656,35.388 41.623,35.415 C41.595,35.44 41.55,35.437 41.522,35.41 L41.522,35.41 Z" id="Shape" sketch:type="MSShapeGroup"></path>
            <path d="M42.921,28.226 C42.913,28.142 42.839,28.08 42.756,28.087 L36.982,28.593 C36.949,28.422 36.866,28.26 36.734,28.128 C36.378,27.772 35.798,27.772 35.441,28.128 C35.269,28.3 35.181,28.524 35.175,28.75 L33.654,28.884 C33.571,28.891 33.508,28.965 33.516,29.049 C33.519,29.086 33.536,29.118 33.56,29.143 C33.59,29.174 33.634,29.192 33.681,29.188 L35.218,29.053 C35.261,29.187 35.335,29.314 35.441,29.42 C35.798,29.775 36.378,29.776 36.734,29.42 C36.88,29.274 36.965,29.089 36.992,28.898 L42.783,28.391 C42.866,28.383 42.929,28.31 42.921,28.226 L42.921,28.226 Z M35.656,29.205 C35.419,28.968 35.419,28.581 35.656,28.344 C35.893,28.107 36.28,28.107 36.517,28.344 C36.754,28.581 36.754,28.968 36.518,29.205 C36.28,29.442 35.894,29.442 35.656,29.205 L35.656,29.205 Z" id="Shape" sketch:type="MSShapeGroup"></path>
        </g>
    </g>
</svg>