<svg xmlns="http://www.w3.org/2000/svg" xmlns:xlink="http://www.w3.org/1999/xlink" version="1.1" x="0px" y="0px" style="stroke:#175047; fill: #175047;" viewBox="0 0 100 125" enable-background="new 0 0 100 100" xml:space="preserve"><path fill-rule="evenodd" clip-rule="evenodd" d="M50.572,94.308h-1.833c-0.584-2.801-1.072-5.556-1.749-8.264  c-0.623-2.49-1.677-4.825-3.248-6.888c-2.489-3.269-5.729-4.412-9.801-3.745c-2.208,0.361-4.52,0.49-6.743,0.275  c-3.15-0.305-4.459-2.356-3.92-5.477c0.043-0.248,0.075-0.505,0.164-0.737c0.803-2.094,0.273-3.877-1.257-5.422  c-0.755-0.763-0.539-1.604-0.159-2.398c0.342-0.717,0.354-1.274-0.315-1.787c-0.982-0.752-1.015-1.712-0.639-2.81  c0.421-1.229,0.248-1.497-1.001-1.837c-0.694-0.189-1.408-0.312-2.091-0.534c-1.066-0.346-1.468-1.013-1.092-2.077  c0.294-0.833,0.717-1.669,1.268-2.355c4.423-5.488,6.245-11.795,6.194-18.771c-0.028-3.843,0.641-7.597,2.128-11.17  c2.508-6.024,6.923-9.836,13.33-11.132c8.018-1.624,16.031-1.575,23.95,0.651c4.546,1.278,8.625,3.424,11.852,6.967  c4.017,4.408,5.519,9.761,5.709,15.567c0.246,7.562-1.843,14.504-5.767,20.919c-2.141,3.498-3.606,7.274-4.755,11.187  c-0.726,2.472-2.113,4.473-4.157,6.02c-2.251,1.703-4.806,2.046-7.486,1.48c-2.077-0.438-3.592-1.765-4.381-3.682  c-0.813-1.978-1.341-4.071-2.04-6.257c-0.143-0.011-0.619,0.09-0.901-0.098c-0.419-0.28-0.896-0.723-0.993-1.173  c-0.144-0.663,0.308-1.197,1.045-1.218c1.439-0.04,2.881-0.032,4.32-0.008c0.727,0.015,1.129,0.458,1.152,1.171  c0.025,0.771-0.391,1.204-1.164,1.271c-0.354,0.03-0.71,0.038-1.057,0.055c-0.41,3.731,2.199,7.528,5.438,7.979  c3.385,0.472,6.048-0.854,7.605-3.889c0.589-1.147,1.122-2.348,1.479-3.582c1.134-3.9,2.965-7.471,4.879-11.025  c3.173-5.895,4.908-12.186,4.882-18.922C79.396,26.262,76.927,21.099,72.116,17c-3.877-3.303-8.281-5.389-13.328-6.19  c-5.48-0.87-10.95-1.126-16.438-0.139c-8.561,1.539-13.71,6.588-15.204,15.17c-0.491,2.824-0.586,5.72-0.817,8.587  c-0.435,5.397-2.221,10.306-5.258,14.774c-0.486,0.713-0.984,1.422-1.426,2.163c-0.64,1.07-0.45,1.592,0.717,2.083  c0.496,0.21,1.016,0.365,1.51,0.581c1.116,0.488,1.348,0.96,1.07,2.123c-0.1,0.419-0.236,0.83-0.338,1.249  c-0.179,0.732-0.039,1.35,0.645,1.779c0.912,0.572,1.094,1.367,0.678,2.331c-0.31,0.724-0.242,1.347,0.306,1.982  c1.596,1.855,1.485,4.034,1.068,6.25c-0.06,0.318-0.135,0.634-0.187,0.953c-0.277,1.69,0.358,2.88,2.052,3.046  c1.908,0.187,3.857-0.018,5.787-0.081c1.648-0.054,3.319-0.358,4.939-0.181c3.671,0.399,6.427,2.362,8.291,5.545  c2.108,3.597,3.061,7.582,3.828,11.623C50.231,91.812,50.373,92.99,50.572,94.308"/><path d="M56.769,30.008l-0.428-1.5l1.542-2.313l-2.014-2.614l-2.442,0.857l-1.285-0.857l-0.686-2.571l-3.128-0.385l-1.113,2.185  l-1.543,0.471l-2.185-1.5l-2.699,1.928l0.985,2.399l-0.857,1.371l-2.57,0.471l-0.471,3.342l2.528,1.199l0.128,1.585l-1.414,2.142  l1.971,2.656l2.699-0.857l1.071,0.857l0.6,2.442l3.256,0.557l1.07-2.271l1.543-0.385l2.228,1.371l2.57-1.928l-0.857-2.656  l0.857-1.286l2.528-0.385l0.471-3.171L56.769,30.008z M48.528,35.306c-2.287,0-4.142-1.854-4.142-4.142  c0-2.287,1.854-4.141,4.142-4.141s4.142,1.854,4.142,4.141C52.67,33.452,50.815,35.306,48.528,35.306z"/><path d="M72.769,43.008l-0.428-1.5l1.542-2.313l-2.014-2.614l-2.442,0.857l-1.285-0.857l-0.686-2.571l-3.128-0.385l-1.113,2.185  l-1.543,0.471l-2.185-1.5l-2.698,1.928l0.984,2.399l-0.857,1.371l-2.57,0.471l-0.471,3.342l2.527,1.199l0.129,1.585l-1.414,2.142  l1.971,2.656l2.699-0.856l1.071,0.856l0.601,2.442l3.256,0.557l1.07-2.271l1.543-0.385l2.228,1.371l2.57-1.928l-0.857-2.656  l0.857-1.286l2.528-0.385l0.471-3.171L72.769,43.008z M64.528,48.306c-2.287,0-4.142-1.854-4.142-4.142  c0-2.287,1.854-4.141,4.142-4.141s4.142,1.854,4.142,4.141C68.67,46.452,66.815,48.306,64.528,48.306z"/><path d="M54.004,49.579l-0.317-1.111l1.143-1.714l-1.492-1.938l-1.811,0.635l-0.952-0.635l-0.508-1.905l-2.318-0.286l-0.826,1.62  l-1.143,0.349l-1.619-1.111l-2,1.429l0.73,1.778l-0.636,1.016l-1.905,0.35L40,50.532l1.873,0.889l0.096,1.175l-1.048,1.588  l1.46,1.969l2-0.635l0.794,0.635l0.445,1.811l2.413,0.412l0.794-1.684l1.143-0.285l1.651,1.017l1.905-1.429l-0.636-1.969  l0.636-0.953l1.874-0.285l0.349-2.351L54.004,49.579z M47.896,53.506c-1.696,0-3.07-1.374-3.07-3.069s1.375-3.069,3.07-3.069  c1.695,0,3.069,1.374,3.069,3.069S49.592,53.506,47.896,53.506z"/></svg>