<svg xmlns="http://www.w3.org/2000/svg" xmlns:xlink="http://www.w3.org/1999/xlink" version="1.1" x="0px" y="0px" viewBox="0 0 100 125" enable-background="new 0 0 100 100" xml:space="preserve"><g><polygon points="49.989,37.292 50.419,37.723 51.204,36.937 51.636,37.369 53.358,35.645 52.065,34.353 50.343,36.076    50.774,36.506  "/><path d="M93.309,88.754l0.501-0.502l-6.346-6.346l1.963-1.965L50.778,41.294l1.584-1.584l-2.828-2.827   c0.016-2.437-0.905-4.877-2.764-6.735c-1.859-1.859-4.3-2.78-6.736-2.765l-4.833-4.833l0.88-0.881l0.33,0.33l5.148-5.149   c-2.674,0.125-5.311,1.208-7.352,3.25c-0.805,0.804-1.461,1.701-1.967,2.656l-4.629-4.628c0.955-0.507,1.853-1.162,2.657-1.967   c2.042-2.041,3.125-4.679,3.25-7.352l-5.874,5.874l-5.385-5.385c-0.238-0.237-0.623-0.238-0.861,0l-6.543,6.543   c-3.241,3.241-4.543,6.589-9.115,14.686c-1.01,1.786-1.148,3.461,0.607,5.217L20.554,21.54l8.811,8.81l-2.668,2.669l-0.773-0.772   L14.386,43.783c1.757,1.756,3.432,1.616,5.217,0.607c4.484-2.532,7.512-4.062,9.871-5.472c0.557-0.271,0.99-0.372,1.339-0.366   c0.29,1.565,0.979,3.071,2.063,4.355l-0.424,0.425l-0.324-0.322l-1.723,1.723l1.723,1.723l1.723-1.723l-0.322-0.323l0.42-0.42   c1.02,0.876,2.182,1.5,3.404,1.869l1.846,1.847c-0.713,0.714-0.713,1.87,0,2.584c0.715,0.714,1.871,0.714,2.585,0l3.761-3.761   l38.648,38.649l2.024-2.025l8.038,8.037L95,90.445L93.309,88.754z M33.634,43.284c-3.568-3.567-3.568-9.353,0-12.921   s9.354-3.568,12.921,0s3.568,9.354,0,12.921C42.987,46.852,37.202,46.852,33.634,43.284z"/></g><g><path d="M46.017,42.96l-1.185-1.184c-0.06-0.06-0.06-0.156,0-0.216s0.155-0.06,0.216,0l1.184,1.185c0.06,0.06,0.06,0.156,0,0.215   C46.173,43.02,46.075,43.02,46.017,42.96z"/></g><g><path d="M44.832,32.085c-0.06-0.06-0.06-0.156,0-0.215l1.185-1.185c0.059-0.06,0.156-0.06,0.215,0c0.06,0.06,0.06,0.155,0,0.215   l-1.184,1.185C44.987,32.145,44.892,32.145,44.832,32.085z"/></g><g><path d="M35.142,32.085l-1.186-1.185c-0.059-0.06-0.059-0.155,0-0.215c0.061-0.06,0.156-0.06,0.216,0l1.185,1.185   c0.06,0.059,0.06,0.155,0,0.215S35.2,32.145,35.142,32.085z"/></g><g><path d="M33.956,42.96c-0.059-0.059-0.059-0.155,0-0.215l1.186-1.185c0.059-0.06,0.155-0.06,0.215,0c0.059,0.06,0.06,0.156,0,0.216   l-1.185,1.184C34.112,43.02,34.017,43.02,33.956,42.96z"/></g><g><path d="M45.921,40.357c-0.047-0.047-0.059-0.122-0.023-0.184c0.042-0.072,0.135-0.098,0.207-0.056l1.451,0.838   c0.072,0.042,0.098,0.135,0.056,0.208c-0.042,0.072-0.136,0.098-0.208,0.056l-1.451-0.838   C45.94,40.375,45.931,40.367,45.921,40.357z"/></g><g><path d="M46.604,38.705c-0.037-0.037-0.054-0.093-0.039-0.147c0.021-0.081,0.105-0.129,0.187-0.107l1.618,0.434   c0.082,0.021,0.13,0.105,0.108,0.187c-0.022,0.081-0.105,0.129-0.187,0.107l-1.619-0.434   C46.646,38.737,46.623,38.723,46.604,38.705z"/></g><g><path d="M46.839,36.931c-0.027-0.027-0.045-0.065-0.045-0.107c0-0.084,0.068-0.152,0.152-0.152h1.676   c0.084,0,0.152,0.068,0.152,0.152s-0.068,0.152-0.152,0.152h-1.676C46.905,36.976,46.866,36.958,46.839,36.931z"/></g><g><path d="M46.604,35.158c-0.018-0.019-0.031-0.042-0.039-0.068c-0.021-0.081,0.026-0.165,0.107-0.187l1.619-0.434   c0.081-0.021,0.164,0.026,0.186,0.107c0.022,0.081-0.025,0.165-0.107,0.187l-1.618,0.434   C46.697,35.211,46.642,35.195,46.604,35.158z"/></g><g><path d="M45.921,33.504c-0.009-0.009-0.018-0.02-0.023-0.031c-0.043-0.073-0.018-0.166,0.056-0.208l1.45-0.838   c0.072-0.042,0.166-0.017,0.208,0.057c0.042,0.072,0.017,0.166-0.056,0.208l-1.451,0.837   C46.044,33.564,45.969,33.552,45.921,33.504z"/></g><g><path d="M43.413,30.997c-0.048-0.048-0.06-0.123-0.024-0.185l0.837-1.45c0.043-0.072,0.136-0.098,0.209-0.056   c0.072,0.042,0.098,0.136,0.055,0.208l-0.836,1.45c-0.043,0.073-0.136,0.098-0.209,0.056   C43.433,31.013,43.423,31.005,43.413,30.997z"/></g><g><path d="M41.76,30.313c-0.037-0.037-0.054-0.093-0.04-0.147l0.435-1.618c0.021-0.081,0.104-0.13,0.187-0.108   c0.081,0.022,0.129,0.105,0.107,0.187l-0.434,1.619c-0.021,0.081-0.105,0.129-0.187,0.107   C41.802,30.345,41.778,30.332,41.76,30.313z"/></g><g><path d="M39.986,30.079c-0.027-0.027-0.044-0.065-0.044-0.107v-1.676c0-0.084,0.068-0.152,0.152-0.151   c0.084,0,0.152,0.068,0.152,0.151v1.676c0,0.084-0.068,0.152-0.152,0.151C40.052,30.124,40.015,30.106,39.986,30.079z"/></g><g><path d="M38.213,30.313c-0.019-0.019-0.032-0.042-0.039-0.068l-0.434-1.619c-0.022-0.081,0.026-0.164,0.107-0.187   c0.081-0.021,0.165,0.026,0.187,0.108l0.434,1.618c0.021,0.081-0.026,0.165-0.107,0.187C38.306,30.367,38.251,30.35,38.213,30.313z   "/></g><g><path d="M36.56,30.997c-0.008-0.01-0.017-0.021-0.023-0.032l-0.838-1.45c-0.041-0.072-0.017-0.166,0.057-0.208   c0.072-0.042,0.166-0.017,0.207,0.056l0.838,1.45c0.042,0.073,0.018,0.166-0.056,0.208C36.683,31.056,36.608,31.043,36.56,30.997z"/></g><g><path d="M32.601,32.667c-0.047-0.048-0.059-0.123-0.023-0.184c0.042-0.073,0.135-0.099,0.208-0.056l1.45,0.837   c0.072,0.042,0.098,0.135,0.057,0.208c-0.043,0.073-0.136,0.098-0.209,0.056l-1.45-0.837C32.621,32.685,32.61,32.676,32.601,32.667   z"/></g><g><path d="M31.749,34.724c-0.037-0.037-0.053-0.093-0.039-0.147c0.021-0.081,0.105-0.129,0.187-0.107l1.619,0.434   c0.081,0.022,0.13,0.105,0.107,0.187c-0.021,0.081-0.104,0.13-0.187,0.107l-1.619-0.434C31.791,34.756,31.769,34.743,31.749,34.724   z"/></g><g><path d="M31.459,36.931c-0.027-0.027-0.044-0.065-0.044-0.107c0-0.085,0.067-0.152,0.152-0.152h1.674   c0.084,0,0.152,0.067,0.152,0.152c0,0.084-0.068,0.152-0.152,0.152h-1.674C31.524,36.976,31.487,36.958,31.459,36.931z"/></g><g><path d="M31.749,39.138c-0.018-0.019-0.031-0.042-0.039-0.068c-0.021-0.081,0.027-0.165,0.107-0.187l1.619-0.434   c0.081-0.021,0.164,0.026,0.187,0.107c0.021,0.081-0.026,0.165-0.108,0.187l-1.618,0.434   C31.843,39.192,31.786,39.175,31.749,39.138z"/></g><g><path d="M32.602,41.195c-0.009-0.009-0.018-0.02-0.024-0.031c-0.042-0.073-0.018-0.166,0.056-0.208l1.45-0.838   c0.073-0.042,0.166-0.017,0.208,0.056c0.042,0.073,0.017,0.166-0.056,0.208l-1.45,0.838C32.724,41.254,32.649,41.243,32.602,41.195   z"/></g><g><path d="M35.723,44.316c-0.048-0.047-0.06-0.123-0.024-0.184l0.838-1.45c0.042-0.073,0.135-0.098,0.207-0.056   c0.073,0.042,0.099,0.135,0.057,0.208l-0.838,1.45c-0.041,0.073-0.135,0.098-0.207,0.056   C35.743,44.333,35.731,44.326,35.723,44.316z"/></g><g><path d="M37.78,45.168c-0.038-0.037-0.055-0.093-0.04-0.147l0.434-1.619c0.021-0.081,0.104-0.129,0.187-0.107   c0.081,0.021,0.129,0.105,0.107,0.187L38.034,45.1c-0.021,0.081-0.105,0.129-0.187,0.107C37.821,45.201,37.798,45.186,37.78,45.168   z"/></g><g><path d="M39.986,45.458c-0.027-0.027-0.044-0.065-0.044-0.107v-1.675c0-0.085,0.068-0.152,0.152-0.152s0.152,0.067,0.152,0.152   v1.675c0,0.084-0.068,0.152-0.152,0.152C40.052,45.503,40.015,45.486,39.986,45.458z"/></g><g><path d="M42.193,45.167c-0.019-0.018-0.032-0.041-0.039-0.067l-0.435-1.619c-0.021-0.081,0.027-0.165,0.108-0.187   s0.165,0.026,0.187,0.107l0.434,1.619c0.021,0.081-0.026,0.165-0.107,0.187C42.286,45.222,42.23,45.206,42.193,45.167z"/></g><g><path d="M44.251,44.316c-0.01-0.009-0.018-0.02-0.025-0.031l-0.837-1.45c-0.042-0.073-0.017-0.166,0.056-0.208   s0.166-0.017,0.208,0.056l0.837,1.45c0.043,0.073,0.018,0.166-0.055,0.208C44.373,44.375,44.298,44.364,44.251,44.316z"/></g><g><path d="M45.872,41.77c-0.027-0.027-0.03-0.072-0.005-0.103c0.027-0.032,0.075-0.036,0.107-0.01l0.701,0.589   c0.032,0.025,0.036,0.075,0.009,0.107c-0.026,0.032-0.074,0.036-0.107,0.009l-0.701-0.588   C45.875,41.773,45.874,41.772,45.872,41.77z"/></g><g><path d="M46.276,41.244c-0.025-0.025-0.03-0.066-0.008-0.098c0.023-0.034,0.07-0.043,0.105-0.019l0.749,0.524   c0.034,0.024,0.043,0.072,0.019,0.106c-0.023,0.034-0.071,0.043-0.105,0.019l-0.75-0.524C46.282,41.25,46.279,41.247,46.276,41.244   z"/></g><g><path d="M46.942,40.095c-0.021-0.021-0.029-0.056-0.016-0.086c0.019-0.038,0.063-0.055,0.102-0.036l0.826,0.385   c0.039,0.019,0.055,0.063,0.037,0.102s-0.062,0.055-0.102,0.037l-0.826-0.386C46.956,40.107,46.948,40.102,46.942,40.095z"/></g><g><path d="M47.195,39.482c-0.021-0.021-0.028-0.052-0.018-0.08c0.015-0.04,0.058-0.061,0.097-0.046l0.859,0.312   c0.039,0.015,0.06,0.058,0.045,0.098c-0.014,0.039-0.058,0.06-0.098,0.046L47.224,39.5C47.212,39.496,47.202,39.489,47.195,39.482z   "/></g><g><path d="M47.537,38.199c-0.017-0.017-0.025-0.041-0.021-0.066c0.007-0.042,0.047-0.069,0.088-0.062l0.9,0.158   c0.042,0.008,0.07,0.047,0.062,0.089c-0.008,0.041-0.047,0.068-0.088,0.062l-0.901-0.159   C47.562,38.217,47.548,38.209,47.537,38.199z"/></g><g><path d="M47.624,37.541c-0.016-0.015-0.023-0.037-0.021-0.061c0.004-0.041,0.04-0.072,0.082-0.068l0.911,0.079   c0.042,0.004,0.073,0.041,0.069,0.083c-0.004,0.041-0.041,0.072-0.082,0.068l-0.912-0.079   C47.653,37.561,47.636,37.553,47.624,37.541z"/></g><g><path d="M47.624,36.213c-0.012-0.012-0.02-0.028-0.021-0.047c-0.004-0.042,0.027-0.079,0.068-0.082l0.912-0.08   c0.041-0.004,0.078,0.027,0.082,0.069s-0.027,0.079-0.068,0.082l-0.912,0.08C47.661,36.238,47.64,36.229,47.624,36.213z"/></g><g><path d="M47.537,35.555c-0.011-0.011-0.019-0.024-0.021-0.04c-0.008-0.042,0.02-0.081,0.061-0.089l0.902-0.158   c0.041-0.008,0.08,0.02,0.088,0.062c0.007,0.041-0.021,0.081-0.062,0.088l-0.9,0.159C47.579,35.581,47.554,35.572,47.537,35.555z"/></g><g><path d="M47.195,34.273c-0.008-0.008-0.014-0.017-0.018-0.027c-0.015-0.04,0.006-0.084,0.046-0.098l0.857-0.312   c0.04-0.015,0.084,0.006,0.098,0.045c0.015,0.04-0.006,0.084-0.045,0.098l-0.858,0.312C47.247,34.301,47.216,34.293,47.195,34.273z   "/></g><g><path d="M46.942,33.659c-0.006-0.006-0.012-0.014-0.016-0.021c-0.018-0.038,0-0.084,0.037-0.102l0.826-0.385   c0.039-0.019,0.084-0.001,0.102,0.036c0.018,0.038,0.002,0.084-0.037,0.102l-0.826,0.386   C46.999,33.688,46.964,33.681,46.942,33.659z"/></g><g><path d="M46.276,32.511c-0.003-0.004-0.006-0.007-0.008-0.011c-0.025-0.034-0.017-0.082,0.018-0.105l0.75-0.525   c0.034-0.023,0.082-0.015,0.105,0.019c0.024,0.035,0.016,0.082-0.019,0.106l-0.749,0.524   C46.343,32.541,46.302,32.537,46.276,32.511z"/></g><g><path d="M45.872,31.984c-0.002-0.001-0.004-0.003-0.005-0.005c-0.026-0.032-0.022-0.08,0.009-0.106l0.701-0.589   c0.033-0.027,0.081-0.023,0.107,0.01c0.027,0.032,0.023,0.08-0.009,0.106l-0.701,0.589C45.944,32.014,45.899,32.012,45.872,31.984z   "/></g><g><path d="M44.933,31.045c-0.027-0.027-0.029-0.072-0.004-0.103l0.588-0.701c0.027-0.032,0.076-0.036,0.107-0.009   c0.032,0.025,0.037,0.075,0.01,0.106l-0.588,0.701c-0.027,0.032-0.075,0.037-0.107,0.01C44.937,31.048,44.935,31.047,44.933,31.045   z"/></g><g><path d="M44.407,30.641c-0.025-0.025-0.03-0.066-0.009-0.098l0.524-0.749c0.024-0.034,0.072-0.043,0.105-0.019   c0.035,0.023,0.043,0.071,0.02,0.105l-0.525,0.75c-0.023,0.034-0.07,0.042-0.105,0.019C44.413,30.647,44.409,30.644,44.407,30.641z   "/></g><g><path d="M43.259,29.975c-0.021-0.021-0.029-0.056-0.016-0.086l0.386-0.826c0.019-0.038,0.063-0.055,0.102-0.037   s0.054,0.062,0.036,0.101l-0.385,0.827c-0.018,0.038-0.063,0.055-0.102,0.037C43.272,29.987,43.265,29.981,43.259,29.975z"/></g><g><path d="M42.645,29.722c-0.021-0.02-0.028-0.051-0.018-0.079l0.312-0.859c0.015-0.039,0.058-0.06,0.098-0.045   c0.039,0.014,0.06,0.058,0.045,0.098l-0.312,0.858c-0.016,0.039-0.059,0.06-0.098,0.045C42.661,29.736,42.652,29.73,42.645,29.722z   "/></g><g><path d="M41.362,29.38c-0.018-0.017-0.025-0.042-0.021-0.067l0.159-0.9c0.007-0.042,0.047-0.069,0.089-0.062   c0.041,0.008,0.068,0.047,0.061,0.089l-0.158,0.9c-0.008,0.042-0.047,0.069-0.088,0.062C41.387,29.399,41.373,29.391,41.362,29.38z   "/></g><g><path d="M40.704,29.293c-0.016-0.016-0.024-0.037-0.022-0.061l0.08-0.911c0.003-0.042,0.04-0.073,0.083-0.069   c0.041,0.004,0.072,0.04,0.068,0.082l-0.08,0.912c-0.003,0.042-0.04,0.072-0.082,0.069C40.732,29.314,40.716,29.305,40.704,29.293z   "/></g><g><path d="M39.377,29.293c-0.013-0.012-0.021-0.028-0.022-0.047l-0.08-0.911c-0.003-0.042,0.027-0.079,0.07-0.083   c0.041-0.004,0.078,0.027,0.082,0.069l0.08,0.911c0.004,0.042-0.027,0.079-0.069,0.083C39.414,29.318,39.392,29.309,39.377,29.293z   "/></g><g><path d="M38.719,29.38c-0.011-0.011-0.019-0.024-0.021-0.041l-0.159-0.9c-0.007-0.042,0.021-0.081,0.062-0.089   c0.041-0.007,0.08,0.021,0.088,0.062l0.158,0.901c0.008,0.042-0.02,0.081-0.061,0.089C38.761,29.406,38.735,29.397,38.719,29.38z"/></g><g><path d="M37.437,29.722c-0.008-0.008-0.014-0.017-0.018-0.027l-0.312-0.858c-0.015-0.04,0.006-0.084,0.045-0.098   c0.039-0.015,0.084,0.006,0.098,0.045l0.312,0.858c0.015,0.04-0.006,0.084-0.045,0.098C37.487,29.75,37.456,29.743,37.437,29.722z"/></g><g><path d="M36.821,29.975c-0.006-0.006-0.011-0.014-0.015-0.021l-0.386-0.827c-0.018-0.038-0.001-0.083,0.037-0.101   s0.084-0.001,0.102,0.037l0.385,0.826c0.018,0.038,0.002,0.083-0.036,0.102C36.878,30.004,36.844,29.998,36.821,29.975z"/></g><g><path d="M35.147,31.046c-0.002-0.002-0.003-0.004-0.004-0.006l-0.589-0.701c-0.027-0.031-0.022-0.08,0.009-0.106   c0.033-0.027,0.081-0.024,0.107,0.009l0.589,0.701c0.026,0.032,0.022,0.08-0.01,0.107C35.22,31.076,35.175,31.074,35.147,31.046z"/></g><g><path d="M35.674,30.641c-0.003-0.003-0.006-0.007-0.009-0.01l-0.524-0.75c-0.024-0.034-0.016-0.081,0.019-0.105   c0.035-0.024,0.082-0.016,0.106,0.019l0.524,0.749c0.023,0.034,0.016,0.082-0.019,0.106C35.741,30.671,35.7,30.667,35.674,30.641z"/></g><g><path d="M33.508,31.396c-0.028-0.027-0.03-0.072-0.005-0.103c0.027-0.032,0.076-0.037,0.107-0.01l0.701,0.589   c0.031,0.025,0.037,0.074,0.01,0.106s-0.075,0.037-0.107,0.01L33.513,31.4C33.511,31.399,33.509,31.397,33.508,31.396z"/></g><g><path d="M33.056,31.986c-0.026-0.025-0.031-0.066-0.01-0.098c0.025-0.034,0.072-0.043,0.106-0.019l0.749,0.524   c0.035,0.024,0.043,0.072,0.02,0.106c-0.024,0.034-0.072,0.043-0.106,0.019l-0.749-0.524   C33.062,31.992,33.058,31.989,33.056,31.986z"/></g><g><path d="M32.312,33.273c-0.021-0.021-0.029-0.056-0.016-0.086c0.019-0.038,0.064-0.055,0.102-0.036l0.827,0.385   c0.038,0.019,0.054,0.063,0.036,0.102s-0.062,0.055-0.101,0.037l-0.827-0.386C32.325,33.285,32.317,33.28,32.312,33.273z"/></g><g><path d="M32.027,33.96c-0.021-0.021-0.028-0.051-0.019-0.08c0.016-0.039,0.059-0.06,0.098-0.045l0.859,0.312   c0.039,0.014,0.06,0.058,0.045,0.098c-0.014,0.039-0.058,0.06-0.098,0.045l-0.858-0.312C32.044,33.974,32.034,33.968,32.027,33.96z   "/></g><g><path d="M31.643,35.397c-0.017-0.018-0.026-0.042-0.021-0.067c0.007-0.042,0.047-0.069,0.089-0.062l0.9,0.158   c0.041,0.008,0.069,0.047,0.062,0.089c-0.008,0.041-0.047,0.068-0.089,0.062l-0.901-0.159   C31.667,35.415,31.653,35.407,31.643,35.397z"/></g><g><path d="M31.546,36.134c-0.016-0.016-0.024-0.037-0.022-0.061c0.003-0.042,0.04-0.073,0.083-0.069l0.91,0.079   c0.043,0.004,0.073,0.041,0.07,0.083c-0.004,0.042-0.041,0.073-0.083,0.069l-0.911-0.08C31.574,36.155,31.558,36.146,31.546,36.134   z"/></g><g><path d="M31.546,37.621c-0.013-0.013-0.021-0.029-0.022-0.047c-0.004-0.042,0.027-0.079,0.069-0.083l0.911-0.08   c0.042-0.003,0.079,0.027,0.083,0.069c0.003,0.042-0.027,0.079-0.07,0.083l-0.91,0.079C31.583,37.644,31.561,37.636,31.546,37.621z   "/></g><g><path d="M31.643,38.358c-0.011-0.011-0.019-0.024-0.021-0.041c-0.008-0.041,0.02-0.08,0.061-0.088l0.901-0.159   c0.042-0.007,0.081,0.021,0.089,0.062c0.007,0.041-0.021,0.081-0.062,0.088l-0.9,0.159C31.685,38.383,31.659,38.375,31.643,38.358z   "/></g><g><path d="M32.027,39.793c-0.008-0.007-0.015-0.017-0.019-0.027c-0.014-0.04,0.007-0.083,0.047-0.098l0.857-0.312   c0.039-0.015,0.084,0.006,0.098,0.046c0.015,0.039-0.006,0.083-0.045,0.098l-0.859,0.312   C32.078,39.822,32.048,39.814,32.027,39.793z"/></g><g><path d="M32.312,40.481c-0.006-0.006-0.012-0.014-0.016-0.021c-0.018-0.038,0-0.083,0.037-0.102l0.827-0.385   c0.038-0.019,0.083-0.002,0.101,0.036s0.002,0.084-0.037,0.102l-0.826,0.386C32.368,40.51,32.333,40.503,32.312,40.481z"/></g><g><path d="M33.056,41.768c-0.004-0.003-0.006-0.006-0.01-0.01c-0.023-0.034-0.016-0.082,0.02-0.106l0.749-0.524   c0.034-0.024,0.082-0.015,0.106,0.019c0.023,0.034,0.016,0.082-0.02,0.106l-0.749,0.524C33.122,41.798,33.081,41.794,33.056,41.768   z"/></g><g><path d="M33.508,42.359c-0.001-0.002-0.003-0.004-0.005-0.005c-0.026-0.032-0.022-0.081,0.01-0.107l0.701-0.589   c0.032-0.026,0.081-0.023,0.107,0.01c0.027,0.032,0.022,0.08-0.01,0.107l-0.701,0.588C33.58,42.388,33.536,42.386,33.508,42.359z"/></g><g><path d="M34.56,43.41c-0.028-0.027-0.031-0.072-0.005-0.103l0.589-0.701c0.026-0.032,0.074-0.036,0.106-0.01   c0.032,0.025,0.036,0.075,0.009,0.107l-0.588,0.701c-0.027,0.032-0.074,0.036-0.107,0.01C34.562,43.413,34.561,43.412,34.56,43.41z   "/></g><g><path d="M35.149,43.863c-0.025-0.026-0.03-0.067-0.009-0.098l0.524-0.75c0.024-0.034,0.072-0.042,0.106-0.019   c0.034,0.024,0.043,0.072,0.019,0.106l-0.524,0.749c-0.024,0.035-0.071,0.043-0.106,0.019   C35.155,43.869,35.152,43.866,35.149,43.863z"/></g><g><path d="M36.437,44.606c-0.021-0.022-0.029-0.057-0.016-0.086l0.386-0.827c0.019-0.038,0.063-0.055,0.101-0.036   c0.039,0.018,0.055,0.062,0.037,0.101l-0.385,0.827c-0.018,0.038-0.063,0.055-0.102,0.036   C36.45,44.617,36.442,44.612,36.437,44.606z"/></g><g><path d="M37.124,44.89c-0.021-0.02-0.028-0.051-0.018-0.08l0.312-0.857c0.014-0.04,0.058-0.061,0.098-0.046   c0.039,0.015,0.06,0.058,0.045,0.098l-0.312,0.858c-0.014,0.039-0.059,0.06-0.098,0.045C37.141,44.904,37.132,44.898,37.124,44.89z   "/></g><g><path d="M38.56,45.275c-0.018-0.017-0.025-0.041-0.021-0.067l0.159-0.9c0.007-0.041,0.047-0.069,0.089-0.062   c0.041,0.007,0.068,0.047,0.061,0.088l-0.158,0.901c-0.008,0.041-0.047,0.068-0.088,0.062C38.584,45.293,38.57,45.286,38.56,45.275   z"/></g><g><path d="M39.298,45.373c-0.016-0.016-0.025-0.037-0.022-0.061l0.079-0.911c0.004-0.042,0.041-0.073,0.083-0.069   s0.073,0.04,0.069,0.082l-0.08,0.911c-0.004,0.042-0.041,0.073-0.082,0.069C39.325,45.393,39.31,45.384,39.298,45.373z"/></g><g><path d="M40.784,45.373c-0.013-0.013-0.021-0.029-0.022-0.048l-0.08-0.911c-0.003-0.042,0.027-0.078,0.069-0.082   s0.079,0.027,0.082,0.069l0.08,0.911c0.004,0.042-0.027,0.078-0.068,0.082C40.821,45.396,40.799,45.387,40.784,45.373z"/></g><g><path d="M41.521,45.275c-0.01-0.011-0.018-0.024-0.021-0.04l-0.159-0.901c-0.007-0.041,0.021-0.081,0.062-0.088   c0.041-0.008,0.08,0.021,0.088,0.062l0.158,0.901c0.008,0.041-0.02,0.08-0.061,0.088C41.563,45.301,41.538,45.292,41.521,45.275z"/></g><g><path d="M42.957,44.89c-0.008-0.008-0.014-0.017-0.019-0.027l-0.312-0.858c-0.015-0.04,0.006-0.083,0.046-0.098   c0.039-0.015,0.082,0.006,0.098,0.046l0.312,0.857c0.014,0.04-0.007,0.084-0.047,0.098C43.009,44.918,42.978,44.911,42.957,44.89z"/></g><g><path d="M43.644,44.606c-0.006-0.006-0.011-0.014-0.015-0.021l-0.386-0.827c-0.018-0.038-0.001-0.083,0.037-0.101   c0.039-0.018,0.084-0.001,0.102,0.036l0.385,0.827c0.018,0.038,0.002,0.083-0.036,0.101C43.7,44.635,43.666,44.627,43.644,44.606z"/></g><g><path d="M44.932,43.863c-0.003-0.003-0.006-0.007-0.009-0.011l-0.524-0.749c-0.024-0.034-0.016-0.082,0.019-0.106   c0.035-0.023,0.082-0.015,0.105,0.02l0.525,0.749c0.023,0.034,0.016,0.082-0.02,0.105C44.999,43.892,44.957,43.888,44.932,43.863z"/></g><g><path d="M45.522,43.41c-0.002-0.001-0.004-0.003-0.006-0.005l-0.588-0.701c-0.027-0.032-0.022-0.08,0.01-0.107   c0.032-0.026,0.08-0.022,0.107,0.01l0.588,0.701c0.027,0.032,0.023,0.08-0.01,0.107C45.595,43.44,45.55,43.437,45.522,43.41z"/></g><path d="M46.921,36.226c-0.008-0.084-0.082-0.146-0.165-0.139l-5.774,0.506c-0.033-0.171-0.116-0.333-0.248-0.465  c-0.356-0.356-0.936-0.356-1.293,0c-0.172,0.172-0.26,0.396-0.266,0.622l-1.521,0.134c-0.083,0.007-0.146,0.081-0.138,0.165  c0.003,0.037,0.02,0.069,0.044,0.094c0.03,0.031,0.074,0.049,0.121,0.045l1.537-0.135c0.043,0.134,0.117,0.261,0.223,0.367  c0.357,0.355,0.937,0.356,1.293,0c0.146-0.146,0.231-0.331,0.258-0.522l5.791-0.507C46.866,36.383,46.929,36.31,46.921,36.226z   M39.656,37.205c-0.237-0.237-0.237-0.624,0-0.861s0.624-0.237,0.861,0s0.237,0.624,0.001,0.861  C40.28,37.442,39.894,37.442,39.656,37.205z"/></svg>