<svg xmlns="http://www.w3.org/2000/svg" xmlns:xlink="http://www.w3.org/1999/xlink" version="1.1" x="0px" y="0px" viewBox="0 0 100 125" enable-background="new 0 0 100 100" xml:space="preserve"><g><path d="M77.566,62.269h-5.389c-0.271,0-0.49-0.219-0.49-0.49c0-0.271,0.219-0.489,0.49-0.489h5.389c0.271,0,0.49,0.219,0.49,0.489   C78.057,62.05,77.838,62.269,77.566,62.269z"/></g><g><path d="M50.128,40.219c-0.271,0-0.49-0.219-0.49-0.49V34.34c0-0.271,0.22-0.49,0.49-0.49s0.491,0.22,0.491,0.49v5.389   C50.619,40,50.399,40.219,50.128,40.219z"/></g><g><path d="M28.08,62.269h-5.39c-0.271,0-0.49-0.219-0.49-0.49c0-0.271,0.22-0.489,0.49-0.489h5.39c0.271,0,0.49,0.219,0.49,0.489   C28.57,62.05,28.351,62.269,28.08,62.269z"/></g><g><path d="M50.128,89.707c-0.271,0-0.49-0.22-0.49-0.49v-5.389c0-0.271,0.22-0.49,0.49-0.49s0.491,0.219,0.491,0.49v5.389   C50.619,89.487,50.399,89.707,50.128,89.707z"/></g><g><path d="M71.428,56.562c-0.217,0-0.414-0.145-0.473-0.363c-0.07-0.262,0.084-0.529,0.346-0.6l5.205-1.395   c0.262-0.071,0.529,0.085,0.6,0.346c0.07,0.262-0.086,0.53-0.346,0.601l-5.205,1.395C71.512,56.557,71.469,56.562,71.428,56.562z"/></g><g><path d="M69.221,51.245c-0.168,0-0.334-0.088-0.424-0.245c-0.135-0.233-0.055-0.533,0.18-0.669l4.67-2.696   c0.232-0.135,0.533-0.055,0.668,0.18c0.137,0.234,0.057,0.534-0.178,0.669l-4.67,2.696C69.389,51.225,69.305,51.245,69.221,51.245z   "/></g><g><path d="M65.719,46.678c-0.125,0-0.25-0.048-0.346-0.144c-0.191-0.191-0.191-0.501,0-0.693l3.811-3.811   c0.191-0.191,0.502-0.191,0.693,0c0.191,0.191,0.191,0.501,0,0.693l-3.811,3.811C65.971,46.63,65.846,46.678,65.719,46.678z"/></g><g><path d="M61.152,43.176c-0.084,0-0.168-0.021-0.246-0.066c-0.234-0.135-0.314-0.435-0.18-0.669l2.697-4.669   c0.135-0.235,0.436-0.314,0.67-0.18c0.234,0.136,0.314,0.435,0.178,0.669l-2.695,4.669C61.484,43.088,61.32,43.176,61.152,43.176z"/></g><g><path d="M55.836,40.97c-0.041,0-0.084-0.005-0.127-0.017c-0.262-0.07-0.416-0.338-0.346-0.6l1.395-5.204   c0.068-0.262,0.336-0.417,0.6-0.347c0.262,0.07,0.416,0.339,0.346,0.6l-1.395,5.205C56.25,40.825,56.053,40.97,55.836,40.97z"/></g><g><path d="M44.421,40.97c-0.216,0-0.414-0.145-0.473-0.363l-1.395-5.205c-0.07-0.261,0.085-0.53,0.346-0.6   c0.261-0.069,0.53,0.085,0.6,0.347l1.395,5.204c0.07,0.262-0.085,0.53-0.347,0.6C44.506,40.964,44.463,40.97,44.421,40.97z"/></g><g><path d="M39.106,43.176c-0.169,0-0.334-0.088-0.425-0.245l-2.696-4.67c-0.135-0.234-0.055-0.534,0.179-0.669   c0.235-0.135,0.534-0.055,0.669,0.18l2.696,4.669c0.135,0.234,0.055,0.534-0.18,0.669C39.273,43.155,39.189,43.176,39.106,43.176z"/></g><g><path d="M34.538,46.678c-0.125,0-0.251-0.048-0.347-0.144l-3.811-3.811c-0.191-0.191-0.191-0.501,0-0.693   c0.191-0.191,0.501-0.191,0.693,0l3.811,3.811c0.191,0.191,0.191,0.501,0,0.693C34.789,46.63,34.663,46.678,34.538,46.678z"/></g><g><path d="M31.036,51.245c-0.083,0-0.167-0.021-0.245-0.065l-4.67-2.696c-0.234-0.136-0.315-0.435-0.18-0.669   c0.136-0.234,0.435-0.315,0.669-0.18l4.67,2.696c0.234,0.136,0.315,0.435,0.18,0.669C31.37,51.157,31.205,51.245,31.036,51.245z"/></g><g><path d="M28.831,56.562c-0.042,0-0.084-0.005-0.127-0.017l-5.205-1.395c-0.262-0.07-0.417-0.339-0.347-0.601   c0.07-0.261,0.339-0.417,0.6-0.346l5.205,1.395c0.261,0.07,0.417,0.338,0.347,0.6C29.245,56.417,29.047,56.562,28.831,56.562z"/></g><g><path d="M23.625,69.371c-0.216,0-0.415-0.145-0.473-0.363c-0.07-0.262,0.085-0.53,0.347-0.601l5.205-1.395   c0.26-0.07,0.53,0.085,0.6,0.347c0.07,0.261-0.085,0.529-0.347,0.6l-5.205,1.395C23.709,69.365,23.667,69.371,23.625,69.371z"/></g><g><path d="M26.367,75.988c-0.17,0-0.334-0.088-0.425-0.245c-0.135-0.234-0.055-0.534,0.18-0.669l4.67-2.696   c0.235-0.136,0.534-0.055,0.669,0.179c0.135,0.235,0.055,0.534-0.18,0.67l-4.67,2.696C26.534,75.967,26.45,75.988,26.367,75.988z"/></g><g><path d="M30.727,81.671c-0.125,0-0.251-0.048-0.347-0.144c-0.191-0.191-0.191-0.502,0-0.693l3.811-3.811   c0.191-0.191,0.502-0.191,0.693,0c0.191,0.191,0.191,0.501,0,0.692l-3.811,3.812C30.978,81.623,30.853,81.671,30.727,81.671z"/></g><g><path d="M36.409,86.031c-0.083,0-0.167-0.021-0.245-0.066c-0.234-0.135-0.314-0.435-0.179-0.669l2.696-4.67   c0.135-0.233,0.435-0.314,0.669-0.179c0.234,0.135,0.315,0.435,0.18,0.669l-2.696,4.67C36.743,85.942,36.578,86.031,36.409,86.031z   "/></g><g><path d="M43.027,88.772c-0.042,0-0.085-0.006-0.127-0.018c-0.261-0.069-0.417-0.338-0.346-0.6l1.395-5.204   c0.07-0.262,0.34-0.418,0.6-0.347c0.261,0.07,0.417,0.339,0.347,0.601L43.5,88.409C43.441,88.628,43.244,88.772,43.027,88.772z"/></g><g><path d="M57.23,88.772c-0.217,0-0.414-0.145-0.473-0.363l-1.395-5.204c-0.07-0.262,0.084-0.53,0.346-0.601   c0.262-0.071,0.529,0.086,0.6,0.347l1.395,5.204c0.07,0.262-0.084,0.53-0.346,0.6C57.314,88.767,57.271,88.772,57.23,88.772z"/></g><g><path d="M63.848,86.031c-0.168,0-0.334-0.089-0.424-0.245l-2.697-4.669c-0.135-0.234-0.055-0.534,0.18-0.67   c0.234-0.135,0.535-0.055,0.67,0.18l2.695,4.669c0.137,0.234,0.057,0.534-0.178,0.669C64.016,86.01,63.932,86.031,63.848,86.031z"/></g><g><path d="M69.531,81.671c-0.127,0-0.252-0.048-0.348-0.144l-3.811-3.812c-0.191-0.191-0.191-0.501,0-0.692s0.502-0.191,0.693,0   l3.811,3.811c0.191,0.191,0.191,0.502,0,0.693C69.781,81.623,69.656,81.671,69.531,81.671z"/></g><g><path d="M73.891,75.988c-0.084,0-0.168-0.021-0.244-0.065l-4.67-2.696c-0.234-0.136-0.314-0.436-0.18-0.67s0.436-0.314,0.67-0.179   l4.67,2.696c0.234,0.135,0.314,0.435,0.178,0.669C74.225,75.9,74.061,75.988,73.891,75.988z"/></g><g><path d="M76.633,69.371c-0.043,0-0.086-0.006-0.127-0.018l-5.205-1.395c-0.262-0.07-0.416-0.339-0.346-0.6   c0.068-0.262,0.336-0.418,0.6-0.347l5.205,1.395c0.26,0.07,0.416,0.339,0.346,0.601C77.047,69.227,76.85,69.371,76.633,69.371z"/></g><g><path d="M74.529,59.889c-0.125,0-0.232-0.096-0.244-0.224c-0.012-0.135,0.088-0.254,0.223-0.266l2.934-0.257   c0.131-0.014,0.254,0.088,0.266,0.224c0.012,0.135-0.088,0.253-0.223,0.265l-2.934,0.257   C74.543,59.889,74.537,59.889,74.529,59.889z"/></g><g><path d="M74.252,57.771c-0.117,0-0.221-0.084-0.242-0.203c-0.021-0.133,0.066-0.26,0.199-0.283l2.898-0.512   c0.135-0.022,0.262,0.065,0.285,0.199c0.023,0.133-0.066,0.26-0.199,0.284l-2.898,0.511C74.279,57.769,74.266,57.771,74.252,57.771   z"/></g><g><path d="M73.156,53.643c-0.102,0-0.195-0.062-0.23-0.161c-0.047-0.127,0.02-0.268,0.146-0.314l2.756-1.003   c0.129-0.047,0.268,0.019,0.314,0.146c0.047,0.127-0.02,0.268-0.146,0.313l-2.758,1.004C73.211,53.638,73.184,53.643,73.156,53.643   z"/></g><g><path d="M72.332,51.67c-0.092,0-0.18-0.052-0.223-0.141c-0.057-0.123-0.004-0.269,0.119-0.326l2.664-1.242   c0.123-0.058,0.27-0.004,0.326,0.118c0.057,0.123,0.004,0.269-0.119,0.326l-2.664,1.242C72.402,51.663,72.367,51.67,72.332,51.67z"/></g><g><path d="M70.193,47.974c-0.076,0-0.152-0.036-0.201-0.104c-0.076-0.111-0.051-0.264,0.061-0.341l2.412-1.688   c0.111-0.078,0.264-0.051,0.342,0.06c0.076,0.111,0.051,0.264-0.061,0.341l-2.412,1.688C70.291,47.959,70.242,47.974,70.193,47.974   z"/></g><g><path d="M68.895,46.279c-0.07,0-0.141-0.03-0.189-0.087c-0.086-0.104-0.072-0.258,0.031-0.345l2.254-1.892   c0.104-0.087,0.258-0.074,0.346,0.03c0.088,0.104,0.072,0.258-0.031,0.345l-2.254,1.892C69.006,46.26,68.949,46.279,68.895,46.279z   "/></g><g><path d="M65.875,43.259c-0.057,0-0.111-0.019-0.158-0.057c-0.104-0.087-0.117-0.242-0.031-0.345l1.893-2.255   c0.088-0.104,0.242-0.117,0.346-0.03s0.117,0.242,0.029,0.345l-1.891,2.255C66.014,43.23,65.943,43.259,65.875,43.259z"/></g><g><path d="M64.178,41.959c-0.049,0-0.098-0.014-0.141-0.044c-0.111-0.078-0.137-0.23-0.061-0.341l1.689-2.412   c0.076-0.111,0.23-0.138,0.342-0.06s0.137,0.23,0.059,0.341l-1.688,2.412C64.33,41.923,64.256,41.959,64.178,41.959z"/></g><g><path d="M60.482,39.82c-0.035,0-0.07-0.007-0.104-0.023c-0.123-0.058-0.176-0.203-0.119-0.326l1.242-2.664   c0.059-0.123,0.205-0.176,0.326-0.119c0.123,0.057,0.176,0.203,0.119,0.326l-1.242,2.664C60.664,39.767,60.574,39.82,60.482,39.82z   "/></g><g><path d="M58.51,38.998c-0.027,0-0.057-0.005-0.084-0.015c-0.127-0.046-0.193-0.187-0.146-0.314l1.004-2.757   c0.047-0.127,0.188-0.191,0.314-0.146c0.127,0.046,0.193,0.187,0.146,0.314l-1.004,2.758C58.703,38.936,58.609,38.998,58.51,38.998   z"/></g><g><path d="M54.383,37.901c-0.014,0-0.029-0.001-0.043-0.004c-0.133-0.023-0.223-0.15-0.199-0.284l0.512-2.898   c0.023-0.134,0.15-0.222,0.283-0.199s0.223,0.15,0.199,0.284l-0.512,2.898C54.604,37.817,54.498,37.901,54.383,37.901z"/></g><g><path d="M52.264,37.623c-0.006,0-0.014,0-0.021,0c-0.135-0.012-0.234-0.131-0.223-0.266l0.258-2.934   c0.012-0.135,0.133-0.235,0.264-0.223c0.135,0.012,0.236,0.13,0.225,0.265l-0.258,2.934C52.496,37.527,52.391,37.623,52.264,37.623   z"/></g><g><path d="M47.993,37.623c-0.125,0-0.232-0.096-0.244-0.224l-0.256-2.934c-0.012-0.135,0.088-0.253,0.223-0.265   c0.133-0.014,0.253,0.087,0.265,0.223l0.257,2.934c0.012,0.135-0.088,0.253-0.223,0.266C48.008,37.623,48,37.623,47.993,37.623z"/></g><g><path d="M45.875,37.901c-0.117,0-0.22-0.083-0.241-0.203L45.123,34.8c-0.023-0.133,0.065-0.26,0.198-0.284   c0.134-0.022,0.261,0.065,0.284,0.199l0.511,2.898c0.023,0.133-0.065,0.26-0.199,0.284C45.903,37.899,45.889,37.901,45.875,37.901z   "/></g><g><path d="M41.748,38.998c-0.1,0-0.194-0.062-0.23-0.162l-1.004-2.757c-0.046-0.127,0.02-0.268,0.146-0.314   c0.127-0.045,0.268,0.019,0.314,0.146l1.004,2.757c0.046,0.127-0.02,0.268-0.146,0.314C41.804,38.993,41.775,38.998,41.748,38.998z   "/></g><g><path d="M39.775,39.82c-0.092,0-0.181-0.053-0.222-0.142l-1.243-2.664c-0.057-0.123-0.004-0.269,0.119-0.326   c0.123-0.058,0.269-0.004,0.326,0.119l1.242,2.664c0.057,0.123,0.004,0.268-0.119,0.325C39.845,39.812,39.81,39.82,39.775,39.82z"/></g><g><path d="M36.08,41.959c-0.077,0-0.153-0.037-0.201-0.104l-1.689-2.412c-0.078-0.11-0.051-0.263,0.061-0.341   c0.11-0.078,0.263-0.051,0.341,0.06l1.689,2.412c0.078,0.11,0.05,0.263-0.061,0.341C36.177,41.945,36.128,41.959,36.08,41.959z"/></g><g><path d="M34.384,43.259c-0.07,0-0.14-0.029-0.188-0.087l-1.892-2.255c-0.087-0.104-0.073-0.258,0.03-0.345s0.258-0.073,0.345,0.03   l1.892,2.255c0.087,0.104,0.073,0.258-0.03,0.345C34.495,43.241,34.439,43.259,34.384,43.259z"/></g><g><path d="M31.364,46.279c-0.055,0-0.111-0.019-0.157-0.058l-2.255-1.892c-0.104-0.087-0.117-0.242-0.03-0.345   c0.087-0.104,0.242-0.117,0.345-0.03l2.255,1.892c0.104,0.087,0.117,0.241,0.03,0.345C31.504,46.249,31.435,46.279,31.364,46.279z"/></g><g><path d="M30.064,47.975c-0.049,0-0.098-0.015-0.14-0.044l-2.413-1.689c-0.111-0.078-0.138-0.23-0.06-0.341   c0.078-0.111,0.23-0.137,0.341-0.06l2.412,1.689c0.111,0.078,0.138,0.23,0.06,0.341C30.218,47.938,30.142,47.975,30.064,47.975z"/></g><g><path d="M27.925,51.67c-0.035,0-0.07-0.007-0.103-0.022l-2.664-1.242c-0.123-0.058-0.176-0.203-0.119-0.326   c0.057-0.123,0.203-0.176,0.326-0.118l2.664,1.242c0.123,0.058,0.175,0.203,0.118,0.326C28.105,51.618,28.017,51.67,27.925,51.67z"/></g><g><path d="M27.103,53.643c-0.028,0-0.056-0.005-0.083-0.015l-2.758-1.004c-0.127-0.046-0.193-0.187-0.146-0.313   c0.046-0.128,0.188-0.193,0.314-0.146l2.758,1.004c0.127,0.046,0.193,0.187,0.146,0.313C27.297,53.581,27.203,53.643,27.103,53.643   z"/></g><g><path d="M25.729,59.889c-0.007,0-0.014,0-0.021-0.001l-2.934-0.257c-0.135-0.012-0.235-0.13-0.223-0.265   c0.011-0.136,0.13-0.236,0.265-0.224l2.934,0.257c0.135,0.012,0.235,0.131,0.223,0.266C25.961,59.793,25.854,59.889,25.729,59.889z   "/></g><g><path d="M26.006,57.771c-0.014,0-0.029-0.002-0.043-0.004l-2.898-0.511c-0.133-0.024-0.222-0.151-0.199-0.284   c0.023-0.134,0.151-0.22,0.284-0.199l2.898,0.512c0.133,0.023,0.222,0.15,0.199,0.283C26.226,57.687,26.123,57.771,26.006,57.771z"/></g><g><path d="M22.794,64.415c-0.125,0-0.233-0.096-0.244-0.224c-0.012-0.135,0.088-0.254,0.223-0.266l2.934-0.256   c0.132-0.014,0.253,0.088,0.265,0.223c0.012,0.135-0.088,0.253-0.223,0.266l-2.934,0.256   C22.809,64.415,22.802,64.415,22.794,64.415z"/></g><g><path d="M23.107,66.788c-0.117,0-0.22-0.083-0.241-0.202c-0.023-0.134,0.065-0.261,0.199-0.284l2.898-0.511   c0.133-0.021,0.26,0.065,0.284,0.198c0.023,0.134-0.065,0.261-0.199,0.284l-2.898,0.511C23.135,66.787,23.121,66.788,23.107,66.788   z"/></g><g><path d="M24.345,71.408c-0.1,0-0.194-0.062-0.23-0.161c-0.046-0.127,0.019-0.268,0.146-0.314l2.758-1.003   c0.127-0.046,0.268,0.019,0.314,0.146c0.046,0.127-0.019,0.268-0.146,0.313l-2.758,1.004   C24.401,71.403,24.373,71.408,24.345,71.408z"/></g><g><path d="M25.261,73.62c-0.092,0-0.181-0.053-0.222-0.142c-0.057-0.123-0.004-0.269,0.119-0.326l2.664-1.242   c0.123-0.058,0.268-0.004,0.325,0.118c0.057,0.123,0.004,0.269-0.118,0.326l-2.664,1.242C25.331,73.612,25.296,73.62,25.261,73.62z   "/></g><g><path d="M27.652,77.762c-0.077,0-0.153-0.036-0.201-0.104c-0.078-0.11-0.051-0.264,0.06-0.341l2.413-1.689   c0.11-0.077,0.264-0.051,0.341,0.061c0.078,0.11,0.051,0.264-0.06,0.341l-2.412,1.689C27.75,77.747,27.701,77.762,27.652,77.762z"/></g><g><path d="M29.11,79.661c-0.07,0-0.139-0.03-0.188-0.088c-0.087-0.104-0.073-0.258,0.03-0.346l2.255-1.892   c0.104-0.087,0.258-0.073,0.345,0.03s0.074,0.258-0.03,0.345l-2.255,1.893C29.221,79.642,29.166,79.661,29.11,79.661z"/></g><g><path d="M32.492,83.043c-0.056,0-0.111-0.02-0.157-0.058c-0.104-0.087-0.117-0.241-0.03-0.345l1.892-2.255   c0.087-0.104,0.242-0.118,0.345-0.03c0.104,0.087,0.117,0.241,0.03,0.345l-1.892,2.255C32.631,83.013,32.562,83.043,32.492,83.043z   "/></g><g><path d="M34.391,84.5c-0.049,0-0.098-0.015-0.141-0.045c-0.111-0.077-0.138-0.23-0.06-0.341l1.689-2.412   c0.078-0.11,0.23-0.138,0.341-0.06c0.11,0.077,0.138,0.23,0.06,0.341l-1.689,2.411C34.543,84.463,34.468,84.5,34.391,84.5z"/></g><g><path d="M38.533,86.891c-0.035,0-0.07-0.007-0.104-0.022c-0.123-0.058-0.176-0.203-0.119-0.326l1.243-2.663   c0.057-0.123,0.203-0.176,0.325-0.119c0.123,0.058,0.176,0.204,0.119,0.326l-1.242,2.664   C38.713,86.839,38.625,86.891,38.533,86.891z"/></g><g><path d="M40.744,87.808c-0.028,0-0.056-0.005-0.084-0.015c-0.127-0.047-0.193-0.188-0.146-0.314l1.004-2.758   c0.046-0.127,0.188-0.192,0.314-0.146c0.127,0.047,0.193,0.188,0.146,0.314l-1.004,2.757   C40.938,87.745,40.844,87.808,40.744,87.808z"/></g><g><path d="M45.364,89.045c-0.014,0-0.028-0.001-0.043-0.004c-0.133-0.023-0.222-0.15-0.198-0.283l0.511-2.899   c0.023-0.133,0.151-0.221,0.284-0.198c0.133,0.023,0.222,0.15,0.199,0.283l-0.511,2.899C45.584,88.961,45.481,89.045,45.364,89.045   z"/></g><g><path d="M47.737,89.357c-0.007,0-0.014,0-0.021-0.001c-0.135-0.012-0.235-0.131-0.223-0.266l0.256-2.934   c0.012-0.135,0.132-0.235,0.266-0.223c0.135,0.012,0.234,0.131,0.223,0.266l-0.257,2.934C47.97,89.262,47.863,89.357,47.737,89.357   z"/></g><g><path d="M52.52,89.357c-0.125,0-0.232-0.096-0.244-0.224L52.02,86.2c-0.012-0.135,0.088-0.254,0.223-0.266   c0.131-0.015,0.254,0.088,0.266,0.223l0.256,2.934c0.012,0.135-0.088,0.254-0.223,0.266C52.535,89.357,52.527,89.357,52.52,89.357z   "/></g><g><path d="M54.893,89.045c-0.115,0-0.219-0.084-0.24-0.202l-0.512-2.899c-0.023-0.133,0.066-0.26,0.199-0.283   c0.135-0.021,0.26,0.065,0.283,0.198l0.512,2.899c0.023,0.133-0.066,0.26-0.199,0.283C54.922,89.044,54.906,89.045,54.893,89.045z"/></g><g><path d="M59.514,87.808c-0.1,0-0.195-0.062-0.23-0.162l-1.004-2.757c-0.047-0.127,0.02-0.268,0.146-0.314   c0.129-0.046,0.268,0.02,0.314,0.146l1.004,2.758c0.045,0.127-0.02,0.268-0.146,0.314C59.568,87.803,59.541,87.808,59.514,87.808z"/></g><g><path d="M61.725,86.891c-0.092,0-0.182-0.052-0.223-0.141l-1.242-2.664c-0.057-0.123-0.004-0.269,0.119-0.326   c0.123-0.057,0.268-0.004,0.326,0.119l1.242,2.663c0.057,0.123,0.004,0.269-0.119,0.326C61.795,86.884,61.76,86.891,61.725,86.891z   "/></g><g><path d="M65.867,84.5c-0.078,0-0.154-0.037-0.201-0.105l-1.689-2.411c-0.076-0.11-0.051-0.263,0.061-0.341s0.264-0.051,0.342,0.061   l1.688,2.411c0.078,0.11,0.053,0.263-0.059,0.341C65.965,84.485,65.916,84.5,65.867,84.5z"/></g><g><path d="M67.766,83.043c-0.07,0-0.139-0.03-0.188-0.088L65.686,80.7c-0.086-0.104-0.072-0.258,0.031-0.345s0.258-0.074,0.346,0.03   l1.891,2.255c0.088,0.104,0.074,0.258-0.029,0.345C67.877,83.023,67.822,83.043,67.766,83.043z"/></g><g><path d="M71.146,79.661c-0.055,0-0.111-0.02-0.156-0.058l-2.254-1.892c-0.104-0.087-0.119-0.241-0.031-0.345   c0.088-0.104,0.242-0.117,0.346-0.031l2.254,1.892c0.104,0.088,0.117,0.242,0.031,0.346C71.287,79.631,71.217,79.661,71.146,79.661   z"/></g><g><path d="M72.605,77.762c-0.049,0-0.098-0.015-0.141-0.044l-2.412-1.689c-0.111-0.077-0.137-0.229-0.061-0.341   c0.078-0.11,0.23-0.138,0.342-0.06l2.412,1.688c0.111,0.077,0.137,0.23,0.061,0.341C72.758,77.726,72.682,77.762,72.605,77.762z"/></g><g><path d="M74.996,73.62c-0.035,0-0.07-0.008-0.104-0.023l-2.664-1.242c-0.123-0.058-0.176-0.203-0.119-0.325   c0.059-0.123,0.203-0.175,0.326-0.119l2.664,1.242c0.123,0.058,0.176,0.203,0.119,0.326C75.176,73.567,75.088,73.62,74.996,73.62z"/></g><g><path d="M75.912,71.408c-0.027,0-0.057-0.005-0.084-0.015l-2.756-1.003c-0.127-0.047-0.193-0.188-0.146-0.314   c0.045-0.127,0.186-0.193,0.312-0.146l2.758,1.003c0.127,0.047,0.193,0.188,0.146,0.314C76.105,71.347,76.012,71.408,75.912,71.408   z"/></g><g><path d="M77.15,66.788c-0.014,0-0.029-0.001-0.043-0.004l-2.898-0.511c-0.133-0.023-0.221-0.15-0.199-0.284   c0.023-0.133,0.15-0.221,0.285-0.198l2.898,0.511c0.133,0.023,0.221,0.15,0.197,0.284C77.371,66.705,77.268,66.788,77.15,66.788z"/></g><g><path d="M77.463,64.415c-0.008,0-0.014,0-0.021-0.001l-2.934-0.256c-0.135-0.013-0.234-0.131-0.223-0.266s0.133-0.234,0.266-0.223   l2.934,0.256c0.135,0.012,0.234,0.131,0.223,0.266C77.695,64.319,77.588,64.415,77.463,64.415z"/></g><path d="M74.893,39.562l1.436-1.436l1.387,1.386l4.156-4.157l-5.543-5.543l-4.156,4.158l1.385,1.386l-1.436,1.436  c-5.287-4.702-12.072-7.752-19.543-8.327v-1.861h1.471V25.31c3.873-1.559,6.613-5.352,6.613-9.775C60.662,9.726,55.938,5,50.128,5  C44.32,5,39.594,9.726,39.594,15.535c0,4.424,2.742,8.217,6.615,9.775v1.292h1.47v1.844c-7.571,0.524-14.453,3.587-19.799,8.343  l-1.436-1.436l1.386-1.386l-4.158-4.158l-5.543,5.543l4.158,4.157l1.386-1.386l1.436,1.436C19.87,45.45,16.683,53.2,16.683,61.683  C16.683,80.054,31.629,95,50,95c18.371,0,33.318-14.946,33.318-33.317C83.318,53.2,80.131,45.45,74.893,39.562z M46.209,19.109  v4.598c-3.041-1.464-5.145-4.578-5.145-8.172c0-4.998,4.066-9.064,9.064-9.064c4.999,0,9.065,4.066,9.065,9.064  c0,3.595-2.104,6.708-5.145,8.172v-4.598h1.959v-3.92H44.249v3.92H46.209z M50,91.08c-16.236,0-29.398-13.161-29.398-29.397  c0-16.237,13.162-29.398,29.398-29.398c16.236,0,29.398,13.162,29.398,29.398C79.398,77.919,66.236,91.08,50,91.08z"/><path d="M71.189,57.697l-18.34,3.233c-0.002,0.001-0.006,0.004-0.01,0.004c-0.332-1.259-1.477-2.192-2.84-2.192  c-1.621,0-2.939,1.319-2.939,2.94c0,0.009,0.001,0.017,0.001,0.024c-0.013,0.001-0.026,0.001-0.039,0.003l-4.828,0.852  c-0.267,0.047-0.444,0.301-0.397,0.567c0.042,0.237,0.249,0.405,0.482,0.405c0.028,0,0.057-0.003,0.085-0.008l4.828-0.852  c0.014-0.002,0.026-0.008,0.04-0.011c0.405,1.139,1.491,1.958,2.768,1.958c1.621,0,2.939-1.318,2.939-2.939  c0-0.091-0.004-0.18-0.014-0.269c0.004,0,0.006,0,0.01,0l18.338-3.233c0.135-0.024,0.223-0.151,0.199-0.284  C71.449,57.763,71.322,57.676,71.189,57.697z M50,63.643c-1.081,0-1.96-0.88-1.96-1.96c0-1.081,0.879-1.96,1.96-1.96  c1.082,0,1.961,0.879,1.961,1.96C51.961,62.763,51.082,63.643,50,63.643z"/><path d="M50,65.458c-4.593,0-8.33,3.736-8.33,8.329s3.736,8.33,8.33,8.33s8.33-3.737,8.33-8.33S54.594,65.458,50,65.458z   M50.246,81.621v-1.954c0-0.135-0.109-0.245-0.245-0.245s-0.245,0.11-0.245,0.245v1.954c-4.134-0.127-7.461-3.454-7.588-7.589h1.954  c0.135,0,0.245-0.109,0.245-0.245s-0.11-0.245-0.245-0.245h-1.954c0.127-4.134,3.454-7.461,7.588-7.588v1.953  c0,0.136,0.109,0.245,0.245,0.245s0.245-0.109,0.245-0.245v-1.953c4.133,0.127,7.461,3.454,7.588,7.588h-1.955  c-0.135,0-0.244,0.109-0.244,0.245s0.109,0.245,0.244,0.245h1.955C57.707,78.167,54.379,81.494,50.246,81.621z"/><path d="M53.639,70.149c-0.096-0.096-0.252-0.096-0.348,0l-2.975,2.977c-0.097-0.046-0.202-0.074-0.315-0.074  c-0.405,0-0.735,0.33-0.735,0.735s0.33,0.735,0.735,0.735s0.736-0.33,0.736-0.735c0-0.113-0.029-0.219-0.074-0.314l2.977-2.977  C53.734,70.4,53.734,70.245,53.639,70.149z M50,74.032c-0.135,0-0.245-0.11-0.245-0.245s0.11-0.245,0.245-0.245  c0.135,0,0.245,0.11,0.245,0.245S50.135,74.032,50,74.032z"/><path d="M50.246,48.718v-5.19c0-0.136-0.11-0.245-0.246-0.245s-0.245,0.109-0.245,0.245v5.19c-0.285,0.102-0.49,0.371-0.49,0.689  c0,0.406,0.33,0.735,0.735,0.735c0.404,0,0.734-0.33,0.734-0.735C50.734,49.089,50.529,48.819,50.246,48.718z M50,49.652  c-0.135,0-0.245-0.11-0.245-0.245c0-0.135,0.11-0.245,0.245-0.245c0.135,0,0.245,0.11,0.245,0.245  C50.246,49.542,50.135,49.652,50,49.652z"/><path d="M50,41.078c-4.593,0-8.33,3.737-8.33,8.33s3.736,8.33,8.33,8.33s8.33-3.737,8.33-8.33S54.594,41.078,50,41.078z   M54.131,56.07l-0.488-0.845c-0.068-0.118-0.219-0.157-0.336-0.09c-0.115,0.067-0.156,0.218-0.088,0.335l0.488,0.846  c-1.037,0.557-2.213,0.886-3.461,0.925v-0.975c0-0.135-0.109-0.245-0.245-0.245s-0.245,0.11-0.245,0.245v0.975  c-1.25-0.039-2.425-0.368-3.461-0.925l0.488-0.846c0.068-0.117,0.028-0.268-0.089-0.335s-0.267-0.028-0.335,0.09l-0.488,0.845  c-1.027-0.638-1.896-1.506-2.533-2.533l0.845-0.487c0.117-0.068,0.158-0.218,0.09-0.335s-0.217-0.157-0.335-0.09l-0.846,0.488  c-0.557-1.036-0.886-2.212-0.924-3.461h0.974c0.135,0,0.245-0.109,0.245-0.245c0-0.136-0.11-0.245-0.245-0.245h-0.974  c0.038-1.25,0.367-2.425,0.924-3.461l0.846,0.488c0.039,0.022,0.081,0.033,0.123,0.033c0.084,0,0.167-0.044,0.212-0.123  c0.068-0.117,0.027-0.267-0.09-0.335l-0.845-0.488c0.638-1.027,1.506-1.895,2.533-2.533l0.488,0.845  c0.045,0.079,0.128,0.123,0.212,0.123c0.042,0,0.083-0.011,0.123-0.033c0.117-0.067,0.157-0.217,0.089-0.334l-0.489-0.846  c1.036-0.557,2.212-0.886,3.461-0.924v0.974c0,0.135,0.109,0.245,0.245,0.245s0.245-0.11,0.245-0.245v-0.974  c1.249,0.039,2.424,0.367,3.461,0.924l-0.488,0.846c-0.068,0.117-0.027,0.267,0.088,0.334c0.039,0.022,0.082,0.033,0.123,0.033  c0.084,0,0.168-0.044,0.213-0.123l0.488-0.845c1.027,0.638,1.895,1.506,2.533,2.533l-0.846,0.488  c-0.117,0.068-0.158,0.218-0.09,0.335c0.045,0.079,0.129,0.123,0.213,0.123c0.041,0,0.084-0.011,0.121-0.033l0.848-0.488  c0.557,1.036,0.885,2.211,0.924,3.461h-0.975c-0.135,0-0.244,0.109-0.244,0.245c0,0.135,0.109,0.245,0.244,0.245h0.975  c-0.039,1.25-0.367,2.425-0.924,3.461l-0.848-0.488c-0.115-0.067-0.266-0.027-0.334,0.09s-0.027,0.267,0.09,0.335l0.844,0.487  C56.025,54.564,55.156,55.433,54.131,56.07z"/></svg>